<?xml version="1.0" encoding="UTF-8"?>
<!DOCTYPE svg PUBLIC "-//W3C//DTD SVG 1.1//EN" "http://www.w3.org/Graphics/SVG/1.1/DTD/svg11.dtd">
<svg xmlns="http://www.w3.org/2000/svg" version="1.1" width="1200px" height="1200px" style="shape-rendering:geometricPrecision; text-rendering:geometricPrecision; image-rendering:optimizeQuality; fill-rule:evenodd; clip-rule:evenodd" xmlns:xlink="http://www.w3.org/1999/xlink">
<g><path style="opacity:0.97" fill="#9b9c9b" d="M 536.5,308.5 C 551.494,309.529 566.494,310.529 581.5,311.5C 582.376,312.251 583.376,312.751 584.5,313C 591.815,313.87 599.148,314.537 606.5,315C 607.167,315.667 607.833,316.333 608.5,317C 615.872,317.72 623.205,318.72 630.5,320C 631.328,320.915 632.328,321.581 633.5,322C 643.134,323.985 652.801,325.985 662.5,328C 678.627,333.15 694.627,338.483 710.5,344C 715.673,347.478 721.34,349.811 727.5,351C 733.852,354.365 740.185,357.698 746.5,361C 754.828,364.174 763.161,367.508 771.5,371C 776.042,373.348 779.876,376.515 783,380.5C 784.368,383.738 784.701,387.072 784,390.5C 783.5,391.667 782.667,392.5 781.5,393C 778.139,393.054 775.139,394.054 772.5,396C 769.333,396.167 766.167,396.333 763,396.5C 737.874,393.407 712.707,390.574 687.5,388C 666.149,387.223 644.815,387.556 623.5,389C 622.672,389.915 621.672,390.581 620.5,391C 613.768,391.566 607.102,392.566 600.5,394C 589.482,398.115 578.649,402.615 568,407.5C 552.047,418.119 540.047,432.119 532,449.5C 529.03,458.38 526.53,467.38 524.5,476.5C 521.987,497.842 521.987,519.175 524.5,540.5C 528.646,561.475 532.812,582.475 537,603.5C 548.929,644.617 563.263,684.951 580,724.5C 580.929,728.244 580.429,731.744 578.5,735C 563.838,735.366 549.505,733.7 535.5,730C 521.871,727.243 508.205,724.576 494.5,722C 473.157,718.786 451.823,715.453 430.5,712C 421.516,708.895 412.183,707.228 402.5,707C 400.053,706.027 397.553,705.194 395,704.5C 380.026,703.003 365.193,700.836 350.5,698C 349.328,697.581 348.328,696.915 347.5,696C 342.8,695.329 338.134,694.496 333.5,693.5C 332.703,691.868 331.703,690.368 330.5,689C 316.268,631.173 310.768,572.34 314,512.5C 315.073,508.572 316.073,504.572 317,500.5C 317.2,491.973 318.2,483.639 320,475.5C 322.786,464.639 326.119,453.972 330,443.5C 334.049,433.733 338.382,424.067 343,414.5C 348.6,405.62 354.433,396.954 360.5,388.5C 361.325,387.614 362.325,387.281 363.5,387.5C 365.997,383.817 368.164,379.817 370,375.5C 371.067,374.809 372.234,374.309 373.5,374C 376.824,370.375 380.157,366.708 383.5,363C 385.217,361.441 387.217,360.608 389.5,360.5C 390.164,358.133 391.497,356.133 393.5,354.5C 423.906,331.409 458.239,317.575 496.5,313C 499.658,311.531 502.991,310.531 506.5,310C 515.215,309.196 523.882,309.363 532.5,310.5C 534.026,310.006 535.359,309.339 536.5,308.5 Z"/></g>
<g><path style="opacity:0.966" fill="#9b9c9b" d="M 628.5,443.5 C 640.526,443.891 652.526,444.724 664.5,446C 668.438,448.459 672.771,449.792 677.5,450C 687.713,453.889 697.713,458.222 707.5,463C 712.509,466.17 717.509,469.337 722.5,472.5C 723.386,473.325 723.719,474.325 723.5,475.5C 724.93,475.421 726.264,475.754 727.5,476.5C 743.126,488.627 756.126,503.127 766.5,520C 768.111,522.21 768.778,524.71 768.5,527.5C 769.5,527.5 770.5,527.5 771.5,527.5C 779.187,546.61 781.687,566.61 779,587.5C 777.085,590.862 776.085,594.529 776,598.5C 768.038,617.799 754.538,631.966 735.5,641C 726.899,643.841 718.233,646.508 709.5,649C 701.996,649.438 694.496,649.938 687,650.5C 664.96,648.632 644.127,642.632 624.5,632.5C 619.431,629.678 614.431,626.678 609.5,623.5C 602.371,617.304 595.038,611.637 587.5,606.5C 587.649,605.448 587.483,604.448 587,603.5C 584.167,601.167 581.333,598.833 578.5,596.5C 572.544,588.463 567.044,580.13 562,571.5C 555.889,557.224 551.722,542.391 549.5,527C 550.939,516.965 552.106,506.799 553,496.5C 556.374,490.762 559.374,484.762 562,478.5C 564.163,475.593 566.497,472.926 569,470.5C 569.483,469.552 569.649,468.552 569.5,467.5C 572.745,467.707 574.745,466.207 575.5,463C 578.921,460.623 582.588,458.79 586.5,457.5C 586.5,456.5 586.5,455.5 586.5,454.5C 589.833,453.833 593.167,453.167 596.5,452.5C 596.5,451.5 596.5,450.5 596.5,449.5C 601.323,449.659 605.656,448.493 609.5,446C 616.029,445.552 622.363,444.718 628.5,443.5 Z"/></g>
<g><path style="opacity:0.975" fill="#9b9c9b" d="M 795.5,463.5 C 800.605,463.443 805.271,464.609 809.5,467C 825.969,484.339 842.135,502.172 858,520.5C 860.285,523.999 862.118,527.666 863.5,531.5C 864.675,531.281 865.675,531.614 866.5,532.5C 868.478,538.17 871.645,542.837 876,546.5C 882.183,558.031 888.183,569.698 894,581.5C 905.343,610.22 912.177,640.053 914.5,671C 913.933,675.017 913.267,679.017 912.5,683C 914.133,689.428 914.633,695.928 914,702.5C 913.196,708.453 911.529,714.119 909,719.5C 909.604,726.822 907.937,733.488 904,739.5C 893.163,775.754 876.497,809.087 854,839.5C 852.595,841.651 850.761,843.318 848.5,844.5C 847.338,846.824 846.171,849.158 845,851.5C 834.958,861.88 824.791,872.38 814.5,883C 805.181,891.53 795.515,899.863 785.5,908C 742.031,939.668 695.031,965.668 644.5,986C 630.02,990.604 615.687,995.604 601.5,1001C 595.79,1001.72 590.29,1003.22 585,1005.5C 581.527,1006.16 578.027,1006.5 574.5,1006.5C 574.5,1007.5 574.5,1008.5 574.5,1009.5C 568.125,1009.68 562.125,1011.18 556.5,1014C 553.5,1014.33 550.5,1014.67 547.5,1015C 533.152,1018.7 518.819,1022.36 504.5,1026C 498.842,1026.74 493.175,1027.41 487.5,1028C 477.68,1030.79 467.68,1032.95 457.5,1034.5C 454.721,1034.08 452.055,1033.41 449.5,1032.5C 448.983,1028.78 448.15,1025.11 447,1021.5C 435.652,992.71 424.319,964.043 413,935.5C 392.733,878.768 371.4,822.435 349,766.5C 343.601,749.45 337.268,732.783 330,716.5C 328.207,712.452 328.207,708.452 330,704.5C 332.064,703.409 334.231,703.242 336.5,704C 377.243,716.083 418.576,725.749 460.5,733C 510.29,740.048 560.29,741.381 610.5,737C 611.949,735.883 613.616,735.216 615.5,735C 626.902,733.825 638.235,732.158 649.5,730C 669.017,724.803 688.351,718.803 707.5,712C 714.007,708.702 720.674,705.702 727.5,703C 735.25,697.458 743.583,692.958 752.5,689.5C 752.281,688.325 752.614,687.325 753.5,686.5C 765.344,679.387 775.677,670.553 784.5,660C 785.448,659.517 786.448,659.351 787.5,659.5C 788.013,655.475 789.847,652.142 793,649.5C 793.483,648.552 793.649,647.552 793.5,646.5C 794.675,646.719 795.675,646.386 796.5,645.5C 796.993,642.522 798.493,640.189 801,638.5C 804.021,632.459 807.021,626.459 810,620.5C 814.929,606.836 817.096,592.669 816.5,578C 816.408,568.81 815.908,559.644 815,550.5C 811.997,540.143 808.997,529.81 806,519.5C 803.657,514.454 801.323,509.454 799,504.5C 797.957,501.243 797.457,497.91 797.5,494.5C 796.5,494.5 795.5,494.5 794.5,494.5C 794.33,493.178 794.663,492.011 795.5,491C 795,490.5 794.5,490 794,489.5C 792.717,482.202 792.383,474.869 793,467.5C 793.662,466.016 794.496,464.683 795.5,463.5 Z"/></g>
</svg>
