<?xml version="1.0" encoding="UTF-8"?>
<svg version="1.1" xmlns="http://www.w3.org/2000/svg" width="1200" height="1200">
<path d="M0 0 C0.98950653 0.00021149 1.97901306 0.00042297 2.99850464 0.00064087 C19.40050784 0.03553629 35.2078236 1.03020358 51.3125 4.375 C52.22628418 4.56223633 53.14006836 4.74947266 54.08154297 4.94238281 C80.45789901 10.53956447 105.28536873 20.79685573 127.3125 36.375 C127.90836914 36.79442871 128.50423828 37.21385742 129.11816406 37.64599609 C173.90150143 69.70077363 197.32018033 121.37894157 206.3125 174.375 C206.96443733 178.63831843 207.53681981 182.90686669 208.0625 187.1875 C208.17811279 188.12746826 208.29372559 189.06743652 208.4128418 190.03588867 C210.74484962 210.76897874 210.45851541 231.6097726 210.44322467 252.43829489 C210.44094085 257.04879494 210.44446465 261.65929135 210.44720459 266.26979065 C210.45162772 275.27194058 210.45070184 284.27408213 210.44779195 293.27623238 C210.44552679 300.5879375 210.4452302 307.89964029 210.44631577 315.21134567 C210.44654561 316.77651791 210.44654561 316.77651791 210.44678011 318.37330978 C210.44709985 320.49330391 210.44742406 322.61329803 210.4477527 324.73329215 C210.45059669 344.55832726 210.44733614 364.38335772 210.44195233 384.20839207 C210.43747341 401.22942515 210.43827125 418.25045142 210.44287109 435.27148438 C210.44821556 455.05706532 210.45033456 474.84264222 210.44725883 494.62822378 C210.44694028 496.73459522 210.44662591 498.84096666 210.44631577 500.9473381 C210.44616149 501.9836622 210.44600721 503.01998629 210.44584826 504.08771414 C210.44498361 511.40219275 210.44644464 518.71666879 210.44879532 526.031147 C210.45159156 534.92685484 210.4508583 543.82255384 210.44551457 552.71826066 C210.442877 557.25916905 210.44187361 561.80006269 210.44516373 566.34097099 C210.4481248 570.49015732 210.44653713 574.6393151 210.44118617 578.7884988 C210.44006133 580.2960138 210.44065465 581.80353116 210.44306196 583.31104465 C210.44606519 585.34645362 210.44241308 587.38186927 210.43834114 589.41727638 C210.43817879 590.5518338 210.43801644 591.68639121 210.43784916 592.85532916 C210.3125 595.375 210.3125 595.375 209.3125 596.375 C207.02159906 596.47210514 204.72763459 596.49686587 202.43467712 596.49525452 C201.70695038 596.49610894 200.97922363 596.49696337 200.22944456 596.49784368 C197.77264887 596.49950064 195.31592034 596.49397362 192.85913086 596.48852539 C191.10531109 596.48824354 189.35149121 596.48840121 187.59767151 596.4889679 C182.82101331 596.48925595 178.04438 596.48335795 173.26772761 596.47639394 C168.28155946 596.47016171 163.2953908 596.46955671 158.30921936 596.46836853 C148.86026706 596.46525482 139.41132626 596.45704091 129.96237904 596.44701904 C119.20802756 596.43585912 108.45367554 596.43034776 97.69931972 596.42532361 C75.57037338 596.41485833 53.44143741 596.39725813 31.3125 596.375 C31.31114347 595.70835953 31.30978694 595.04171905 31.30838931 594.35487735 C31.22757875 554.76398618 31.13655915 515.17313008 31.03244839 475.58229303 C31.01993089 470.8188596 31.0074979 466.05542597 30.99511719 461.29199219 C30.9914182 459.86963926 30.9914182 459.86963926 30.98764448 458.41855194 C30.94801971 443.10452288 30.9152271 427.79048653 30.88500018 412.47643636 C30.85378546 396.7397557 30.81513399 381.0031057 30.76970994 365.26645958 C30.74195589 355.57154748 30.71986681 345.87665757 30.70523749 336.18171664 C30.69462067 329.51574142 30.67672099 322.84980941 30.65333296 316.1838669 C30.64008679 312.34932492 30.62982178 308.51484294 30.62828636 304.68027687 C30.61718184 284.0266452 30.54663256 263.26500478 26.0625 243 C25.74043579 241.50678223 25.74043579 241.50678223 25.41186523 239.98339844 C19.72644137 214.76464265 7.4159723 190.81076071 -14.6875 176.375 C-37.61660927 162.80824915 -68.32060022 160.61696261 -93.94921875 166.40625 C-110.35589721 170.65792843 -125.02427447 176.93866137 -137.6875 188.375 C-138.43257812 189.02726563 -139.17765625 189.67953125 -139.9453125 190.3515625 C-164.37451934 213.07838559 -171.77938859 248.42828284 -173.6875 280.375 C-173.82263963 284.89546839 -173.84200655 289.41259335 -173.84571838 293.93489075 C-173.85065636 295.23640082 -173.85559434 296.53791088 -173.86068195 297.87886065 C-173.87411337 301.45238335 -173.88163723 305.02589668 -173.88810861 308.59943783 C-173.89617943 312.4676955 -173.90985373 316.33593406 -173.92282104 320.20417786 C-173.9444899 326.89324654 -173.96266899 333.58231724 -173.97842598 340.27140236 C-174.0012126 349.94249991 -174.02934282 359.61357622 -174.05874526 369.28465565 C-174.10631393 384.97825386 -174.14960689 400.67186079 -174.19018555 416.36547852 C-174.22959524 431.60344115 -174.27104543 446.84139601 -174.31518555 462.0793457 C-174.31793505 463.02939269 -174.32068456 463.97943968 -174.32351738 464.95827597 C-174.34503862 472.38911321 -174.36667758 479.81995011 -174.38835371 487.2507869 C-174.49443052 523.62550888 -174.59024685 560.0002513 -174.6875 596.375 C-231.4475 596.375 -288.2075 596.375 -346.6875 596.375 C-346.6875 405.305 -346.6875 214.235 -346.6875 17.375 C-289.9275 17.375 -233.1675 17.375 -174.6875 17.375 C-174.3575 42.125 -174.0275 66.875 -173.6875 92.375 C-170.7175 88.085 -167.7475 83.795 -164.6875 79.375 C-133.60489489 38.58766399 -87.37529169 10.52584949 -36.6875 2.375 C-35.65407471 2.19984863 -34.62064941 2.02469727 -33.5559082 1.84423828 C-22.37093475 0.13006025 -11.29560331 -0.02229232 0 0 Z " fill="#9C9C9C" transform="translate(823.6875,437.625)"/>
<path d="M0 0 C59.07 0 118.14 0 179 0 C179 191.07 179 382.14 179 579 C119.93 579 60.86 579 0 579 C0 387.93 0 196.86 0 0 Z " fill="#9C9C9C" transform="translate(184,455)"/>
<path d="M0 0 C25.7399261 22.25108069 38.8693918 48.99997248 41.5 82.91015625 C41.56338476 85.5366622 41.46161722 88.06873691 41.25 90.6875 C41.1571875 91.87988281 41.064375 93.07226562 40.96875 94.30078125 C39.42368254 110.75503721 34.28071201 125.31276475 26.25 139.6875 C25.70601562 140.67363281 25.16203125 141.65976562 24.6015625 142.67578125 C10.53550473 166.38223472 -13.78565466 182.57489141 -40.125 189.4375 C-56.91312905 193.50448337 -76.12002885 193.42799752 -92.75 188.6875 C-93.97460938 188.3471875 -95.19921875 188.006875 -96.4609375 187.65625 C-124.35960228 179.14284302 -145.91467846 159.85538676 -160 134.5625 C-173.46052751 109.18516042 -174.65490633 79.6125191 -166.94140625 52.31640625 C-157.76638414 24.37019138 -137.95158455 1.84513322 -112 -11.5625 C-76.0323679 -29.32290114 -31.52428247 -24.89471233 0 0 Z " fill="#9C9C9C" transform="translate(337.75,188.3125)"/>
</svg>
