<svg width="116" height="23" viewBox="0 0 116 23" fill="none" xmlns="http://www.w3.org/2000/svg">
<path d="M102.145 0.871913C103.643 -0.102746 105.578 -0.193484 107.265 0.270918C107.28 1.27387 107.267 2.2778 107.272 3.28173C106.47 2.92855 105.527 2.6983 104.683 3.04465C104.014 3.31002 103.616 3.99687 103.511 4.68372C103.385 5.55496 103.467 6.43791 103.446 7.31403C105.159 7.31793 106.872 7.315 108.585 7.31598C108.598 6.20376 108.572 5.09055 108.6 3.97833C109.765 3.64662 110.917 3.2749 112.076 2.92562C112.086 4.39103 112.063 5.85741 112.089 7.32379C113.247 7.3072 114.406 7.31988 115.565 7.31598V10.1687C114.402 10.1209 113.238 10.1561 112.075 10.1522C112.08 11.7922 112.076 13.4322 112.077 15.0733C112.096 15.9816 112.028 16.8948 112.135 17.8001C112.199 18.3338 112.393 18.9251 112.894 19.2012C113.732 19.6704 114.795 19.4656 115.565 18.9504V21.8315C114.561 22.2676 113.439 22.4003 112.353 22.3232C111.323 22.2471 110.256 21.8724 109.584 21.0529C108.807 20.127 108.607 18.8734 108.591 17.7006C108.583 15.1835 108.592 12.6664 108.587 10.1482C106.873 10.1473 105.159 10.1463 103.446 10.1492C103.444 14.0996 103.445 18.0499 103.445 22.0003C102.274 22.0003 101.102 22.0003 99.9316 22.0003C99.9316 18.0509 99.9267 14.1025 99.9335 10.1531C99.1189 10.1375 98.3032 10.157 97.4886 10.1404C97.4915 9.20286 97.4954 8.26429 97.4866 7.32573C98.2974 7.3072 99.1091 7.315 99.9218 7.32086C99.9813 6.074 99.7911 4.79104 100.164 3.57637C100.479 2.47976 101.179 1.49047 102.145 0.871913Z" fill="#98A2B3"/>
<path d="M26.9256 1.07675C27.6339 0.969428 28.4008 1.21138 28.8701 1.76555C29.4203 2.37239 29.5218 3.33827 29.114 4.04756C28.6632 4.84758 27.6544 5.21929 26.7754 5.02709C25.8631 4.86319 25.1031 4.01536 25.1441 3.06997C25.1178 2.07482 25.95 1.18797 26.9256 1.07675Z" fill="#98A2B3"/>
<path d="M0.00112657 1.51194C1.70459 1.51194 3.40707 1.51194 5.11053 1.51194C6.70081 5.55009 8.3028 9.58434 9.89503 13.6225C10.3019 14.6323 10.6824 15.6538 11.1087 16.6557C13.1546 11.6098 15.2298 6.57646 17.2601 1.52364C18.8982 1.4973 20.5373 1.51779 22.1763 1.51388C22.1724 8.34235 22.1744 15.1708 22.1754 21.9993C20.9929 21.9964 19.8114 22.009 18.6299 21.9925C18.6426 16.9533 18.6289 11.9142 18.6358 6.87402C18.6377 6.64767 18.6299 6.42133 18.6143 6.19498C18.545 6.30035 18.4836 6.40962 18.4299 6.5228C16.3996 11.681 14.3303 16.8245 12.3117 21.9876C11.4707 22.0178 10.6287 21.9895 9.78674 22.0032C7.69205 16.845 5.62371 11.6751 3.53976 6.51304C3.48512 6.40572 3.42658 6.30133 3.36316 6.20084C3.32023 8.4087 3.35634 10.6185 3.34463 12.8264C3.3456 15.884 3.34268 18.9417 3.34561 21.9993C2.23046 22.0022 1.1153 21.9993 0.00112657 22.0003C0.000150931 15.1708 -0.000824704 8.34138 0.00112657 1.51194Z" fill="#98A2B3"/>
<path d="M36.5943 7.30233C38.29 6.8194 40.1183 6.83891 41.813 7.31795C42.1622 7.41551 42.5008 7.55112 42.8149 7.73552C42.7954 8.85457 42.8149 9.9746 42.8042 11.0946C41.6715 10.2292 40.2344 9.68093 38.7944 9.8624C37.6509 9.96582 36.5602 10.559 35.8762 11.4829C34.9972 12.6283 34.7942 14.1493 34.9455 15.5503C35.0586 16.647 35.5123 17.7426 36.365 18.4695C37.2509 19.2568 38.4929 19.5358 39.6519 19.448C40.7973 19.3163 41.8783 18.8314 42.8042 18.1543C42.814 19.2148 42.7993 20.2754 42.812 21.3359C41.3759 22.1905 39.6539 22.411 38.0099 22.33C36.3279 22.2413 34.6508 21.6042 33.4332 20.4217C32.1103 19.1465 31.3922 17.328 31.3073 15.5064C31.2215 13.6127 31.6069 11.6371 32.6966 10.0556C33.6098 8.70628 35.0382 7.75113 36.5943 7.30233Z" fill="#98A2B3"/>
<path d="M74.971 7.07892C76.5954 6.79306 78.296 7.00283 79.8336 7.58528C79.8355 8.66238 79.8336 9.7385 79.8346 10.8146C78.7604 10.0761 77.4482 9.67899 76.1447 9.72485C75.4881 9.75021 74.7661 10.0283 74.4666 10.6527C74.2286 11.2703 74.3934 12.08 74.9759 12.4498C75.972 13.1162 77.1603 13.3991 78.1926 13.9962C79.0053 14.4528 79.7936 15.0499 80.2053 15.9104C80.979 17.5221 80.6512 19.6519 79.2911 20.8539C77.9926 22.0676 76.1223 22.4032 74.4022 22.3388C73.1807 22.2598 71.9534 22.0188 70.8304 21.5193C70.8353 20.3866 70.8236 19.2548 70.8363 18.1231C71.7807 18.809 72.8705 19.2997 74.0237 19.4988C74.8266 19.6295 75.6998 19.6353 76.4481 19.2763C77.1643 18.9202 77.293 17.9026 76.8676 17.2802C76.4696 16.8002 75.8852 16.5357 75.3339 16.2762C74.2988 15.8109 73.211 15.4216 72.3017 14.724C71.6626 14.2254 71.1787 13.523 70.9894 12.7308C70.7085 11.5629 70.7963 10.2468 71.4753 9.2263C72.251 8.037 73.5983 7.32381 74.971 7.07892Z" fill="#98A2B3"/>
<path d="M50.6708 7.54135C51.6406 6.9589 52.8728 6.91011 53.9314 7.26622C53.9265 8.43796 53.9314 9.6097 53.9285 10.7814C53.2358 10.3326 52.3714 10.1404 51.5538 10.2234C50.5567 10.3365 49.7664 11.1024 49.3566 11.9805C48.9118 12.9103 48.8278 13.962 48.8561 14.9786C48.8561 17.3192 48.8571 19.6597 48.8561 22.0003C47.701 22.0003 46.5468 22.0003 45.3926 22.0003C45.3897 17.1084 45.3965 12.2156 45.3897 7.32378C46.5458 7.30915 47.702 7.315 48.8581 7.32085C48.8532 8.16088 48.8581 9.0009 48.8552 9.8419C49.2308 8.92773 49.7898 8.0399 50.6708 7.54135Z" fill="#98A2B3"/>
<path d="M25.463 7.32091C26.6279 7.31603 27.7937 7.30432 28.9586 7.32676C28.945 12.2176 28.9577 17.1095 28.9528 22.0003C27.7898 22.0003 26.6269 22.0003 25.4649 22.0003C25.462 17.1075 25.4659 12.2147 25.463 7.32091Z" fill="#98A2B3"/>
<path d="M60.3972 7.04944C62.083 6.83485 63.8616 6.93102 65.4265 7.64319C66.7844 8.25592 67.8851 9.38872 68.4948 10.7448C69.1454 12.1886 69.3033 13.8099 69.1931 15.3756C69.0848 16.9044 68.6052 18.4364 67.6491 19.651C66.6707 20.9407 65.1953 21.8143 63.6159 22.1393C62.2657 22.4202 60.8528 22.4192 59.5026 22.1354C57.887 21.79 56.3914 20.8527 55.444 19.4889C54.3318 17.9084 54.0155 15.8982 54.1569 14.0045C54.2526 12.3979 54.7519 10.7786 55.778 9.51819C56.9019 8.10644 58.6264 7.27286 60.3972 7.04944ZM64.3835 10.8356C63.6244 10.0677 62.4997 9.76923 61.444 9.8385C60.6042 9.88541 59.7558 10.1692 59.1335 10.7506C58.2749 11.5282 57.8824 12.6872 57.7761 13.8141C57.659 15.053 57.7444 16.3592 58.3102 17.4889C58.7502 18.3658 59.5584 19.0545 60.5114 19.3053C61.448 19.5482 62.4683 19.5276 63.3757 19.1793C64.1511 18.8768 64.7657 18.239 65.1013 17.484C65.6085 16.3641 65.6578 15.1048 65.5954 13.8961C65.5086 12.7919 65.1949 11.6336 64.3835 10.8356Z" fill="#98A2B3"/>
<path d="M88.3978 7.04523C90.1509 6.82766 92.0126 6.94545 93.6126 7.75323C95.0078 8.45081 96.0897 9.71165 96.6302 11.1693C97.0525 12.2843 97.2014 13.4879 97.1771 14.6751C97.18 16.4488 96.7004 18.2692 95.5872 19.6761C94.5452 21.0381 92.9509 21.9234 91.2679 22.2015C89.6221 22.4677 87.8834 22.3981 86.3196 21.7825C84.7355 21.1591 83.4186 19.8872 82.7513 18.3206C82.0557 16.7237 81.982 14.9263 82.1985 13.22C82.4259 11.5137 83.1989 9.84493 84.5159 8.71027C85.5949 7.763 86.9842 7.22674 88.3978 7.04523ZM89.347 9.84113C88.3753 9.89576 87.4108 10.3145 86.7825 11.0716C86.0939 11.8823 85.7981 12.9526 85.7181 13.9954C85.6352 15.0724 85.7185 16.1879 86.1351 17.1946C86.4815 18.0394 87.1389 18.7741 87.9876 19.1331C88.7739 19.4716 89.6603 19.5314 90.5013 19.4056C91.2845 19.2904 92.0439 18.9166 92.554 18.3021C93.0603 17.6904 93.3276 16.9194 93.4622 16.1468C93.632 15.1098 93.6338 14.0412 93.4329 13.0091C93.2544 12.1291 92.8648 11.2546 92.1614 10.6712C91.3986 10.001 90.3391 9.77192 89.347 9.84113Z" fill="#98A2B3"/>
</svg>
