<?xml version="1.0" encoding="UTF-8"?>
<!DOCTYPE svg PUBLIC "-//W3C//DTD SVG 1.1//EN" "http://www.w3.org/Graphics/SVG/1.1/DTD/svg11.dtd">
<svg xmlns="http://www.w3.org/2000/svg" version="1.1" width="1200px" height="1200px" style="shape-rendering:geometricPrecision; text-rendering:geometricPrecision; image-rendering:optimizeQuality; fill-rule:evenodd; clip-rule:evenodd" xmlns:xlink="http://www.w3.org/1999/xlink">
<g><path style="opacity:0.141" fill="#9d9d9d" d="M 420.5,325.5 C 421.167,325.5 421.5,325.833 421.5,326.5C 426.238,331.778 429.905,337.778 432.5,344.5C 433.675,344.281 434.675,344.614 435.5,345.5C 436.174,347.517 437.341,349.183 439,350.5C 439.49,351.793 439.657,353.127 439.5,354.5C 433.284,346.232 427.284,337.566 421.5,328.5C 418.937,325.858 416.271,323.358 413.5,321C 345.834,320.5 278.167,320.333 210.5,320.5C 210.34,322.199 210.506,323.866 211,325.5C 214.928,331.15 218.761,336.817 222.5,342.5C 217.72,337.721 213.553,332.388 210,326.5C 209.231,323.901 209.398,321.401 210.5,319C 279.522,318.18 348.522,318.347 417.5,319.5C 417.654,321.97 418.654,323.97 420.5,325.5 Z"/></g>
<g><path style="opacity:0.148" fill="#9d9d9d" d="M 842.5,368.5 C 843.09,367.234 843.59,365.901 844,364.5C 850.291,358.232 855.958,351.565 861,344.5C 867.674,337.892 874.007,330.892 880,323.5C 880.617,322.551 880.451,321.718 879.5,321C 860.167,320.333 840.833,320.333 821.5,321C 816.942,324.55 812.609,328.55 808.5,333C 807.906,333.464 807.239,333.631 806.5,333.5C 810.52,329.296 814.187,324.796 817.5,320C 818.833,319.667 820.167,319.333 821.5,319C 840.833,318.333 860.167,318.333 879.5,319C 881.329,320.113 882.163,321.613 882,323.5C 876.001,330.665 869.834,337.665 863.5,344.5C 857.192,353.142 850.192,361.142 842.5,368.5 Z"/></g>
<g><path style="opacity:0.978" fill="#9c9c9c" d="M 439.5,354.5 C 439.833,355.5 440.5,356.167 441.5,356.5C 447.281,365.754 453.281,374.754 459.5,383.5C 459.833,384.5 460.5,385.167 461.5,385.5C 463.262,386.262 464.262,387.596 464.5,389.5C 464.932,390.71 465.599,391.71 466.5,392.5C 466.989,393.995 467.655,395.329 468.5,396.5C 478.285,411.793 488.618,426.793 499.5,441.5C 504.768,450.371 510.768,458.705 517.5,466.5C 516.361,468.396 517.027,469.396 519.5,469.5C 523.041,472.379 525.374,476.046 526.5,480.5C 526.932,481.71 527.599,482.71 528.5,483.5C 530.41,484.684 530.743,486.184 529.5,488C 534.411,494.188 539.411,500.355 544.5,506.5C 546.912,506.694 547.912,508.027 547.5,510.5C 552.028,518.54 557.194,526.207 563,533.5C 562.906,536.501 564.239,538.501 567,539.5C 568.861,541.888 570.194,544.554 571,547.5C 572.378,549.213 574.045,550.547 576,551.5C 577.026,554.239 578.526,556.572 580.5,558.5C 580.932,559.71 581.599,560.71 582.5,561.5C 582.989,562.995 583.655,564.329 584.5,565.5C 584.932,566.71 585.599,567.71 586.5,568.5C 587.492,568.328 588.158,568.662 588.5,569.5C 589.521,573.509 591.687,576.843 595,579.5C 595.464,578.906 595.631,578.239 595.5,577.5C 595.842,576.662 596.508,576.328 597.5,576.5C 597.5,576.833 597.5,577.167 597.5,577.5C 597.393,579.379 597.893,579.712 599,578.5C 600.439,576.725 601.439,574.725 602,572.5C 612,563.157 621.333,553.157 630,542.5C 630.608,540.846 631.108,539.179 631.5,537.5C 635.409,535.061 638.909,532.061 642,528.5C 642.333,527.167 642.667,525.833 643,524.5C 647.138,522.201 649.971,518.868 651.5,514.5C 653.554,511.627 655.887,508.961 658.5,506.5C 659.5,506.167 660.167,505.5 660.5,504.5C 661.401,503.71 662.068,502.71 662.5,501.5C 662.328,500.508 662.662,499.842 663.5,499.5C 668.446,499.054 671.279,496.387 672,491.5C 674.655,490.374 676.155,488.374 676.5,485.5C 677.585,483.413 679.251,482.08 681.5,481.5C 682.625,480.652 682.625,479.652 681.5,478.5C 684.167,475.833 686.833,473.167 689.5,470.5C 695.991,465.214 701.324,458.88 705.5,451.5C 707.142,450.197 708.809,448.864 710.5,447.5C 711.345,446.329 712.011,444.995 712.5,443.5C 713.5,443.167 714.167,442.5 714.5,441.5C 721.778,433.215 729.112,424.882 736.5,416.5C 737.124,414.246 738.457,412.579 740.5,411.5C 743.472,407.696 746.972,404.363 751,401.5C 755.331,395.01 759.831,388.676 764.5,382.5C 766.371,382.141 767.871,381.141 769,379.5C 781.333,365.167 793.667,350.833 806,336.5C 806.483,335.552 806.649,334.552 806.5,333.5C 807.239,333.631 807.906,333.464 808.5,333C 812.609,328.55 816.942,324.55 821.5,321C 840.833,320.333 860.167,320.333 879.5,321C 880.451,321.718 880.617,322.551 880,323.5C 874.007,330.892 867.674,337.892 861,344.5C 855.958,351.565 850.291,358.232 844,364.5C 843.59,365.901 843.09,367.234 842.5,368.5C 842.5,369.167 842.167,369.5 841.5,369.5C 840.5,369.833 839.833,370.5 839.5,371.5C 838.5,371.833 837.833,372.5 837.5,373.5C 836.599,374.29 835.932,375.29 835.5,376.5C 831.76,377.908 829.427,380.575 828.5,384.5C 824.766,387.231 821.766,390.564 819.5,394.5C 818.5,394.833 817.833,395.5 817.5,396.5C 816.345,400.332 814.012,403.332 810.5,405.5C 809.5,405.833 808.833,406.5 808.5,407.5C 807.5,407.833 806.833,408.5 806.5,409.5C 802.214,415.123 797.547,420.456 792.5,425.5C 791.5,425.833 790.833,426.5 790.5,427.5C 789.925,431.933 787.591,434.933 783.5,436.5C 782.5,436.833 781.833,437.5 781.5,438.5C 778.937,440.612 777.104,443.279 776,446.5C 770.957,450.042 766.79,454.376 763.5,459.5C 762.599,460.29 761.932,461.29 761.5,462.5C 759.926,463.984 758.593,465.651 757.5,467.5C 753.589,470.908 749.755,474.574 746,478.5C 743.447,483.061 740.114,487.061 736,490.5C 735.59,491.901 735.09,493.234 734.5,494.5C 733.833,495.833 732.833,496.833 731.5,497.5C 725.139,502.614 719.972,508.614 716,515.5C 710.534,518.962 706.534,523.629 704,529.5C 699.92,531.911 696.92,535.244 695,539.5C 688.246,545.917 681.913,552.584 676,559.5C 673.34,563.654 670.507,567.654 667.5,571.5C 666.5,571.833 665.833,572.5 665.5,573.5C 664.655,574.671 663.989,576.005 663.5,577.5C 662.5,577.833 661.833,578.5 661.5,579.5C 661.5,580.167 661.167,580.5 660.5,580.5C 655.824,583.01 652.324,586.676 650,591.5C 646.774,593.869 644.608,596.869 643.5,600.5C 642.848,603.152 641.182,604.818 638.5,605.5C 637.541,609.402 635.208,612.068 631.5,613.5C 629.227,615.584 626.727,617.584 624,619.5C 623.333,621.167 623.333,622.833 624,624.5C 626.333,626.833 628.667,629.167 631,631.5C 633.748,635.956 636.581,640.289 639.5,644.5C 640.5,644.833 641.167,645.5 641.5,646.5C 641.263,647.791 641.596,648.791 642.5,649.5C 644.876,650.206 646.21,651.873 646.5,654.5C 649.934,661.683 654.6,668.016 660.5,673.5C 661.404,674.209 661.737,675.209 661.5,676.5C 661.833,677.5 662.5,678.167 663.5,678.5C 663.989,679.995 664.655,681.329 665.5,682.5C 665.833,683.5 666.5,684.167 667.5,684.5C 669.104,685.287 669.771,686.62 669.5,688.5C 672.943,693.121 675.777,698.121 678,703.5C 685.769,713.05 693.269,722.717 700.5,732.5C 701.338,732.842 701.672,733.508 701.5,734.5C 701.932,735.71 702.599,736.71 703.5,737.5C 705.104,740.943 706.938,744.277 709,747.5C 713.569,751.685 717.403,756.352 720.5,761.5C 721.338,761.842 721.672,762.508 721.5,763.5C 721.989,764.995 722.655,766.329 723.5,767.5C 723.833,768.5 724.5,769.167 725.5,769.5C 726.806,770.968 728.306,772.301 730,773.5C 730.483,774.448 730.649,775.448 730.5,776.5C 733.271,782.392 736.771,787.725 741,792.5C 747.308,802.624 754.141,812.291 761.5,821.5C 763.104,822.287 763.771,823.62 763.5,825.5C 769.561,833.878 775.561,842.211 781.5,850.5C 784.084,851.048 785.084,852.715 784.5,855.5C 784.833,856.5 785.5,857.167 786.5,857.5C 787.906,857.973 788.573,858.973 788.5,860.5C 788.989,861.995 789.655,863.329 790.5,864.5C 794.493,871.302 798.993,878.302 804,885.5C 805.451,887.464 807.284,888.797 809.5,889.5C 809.918,892.765 811.085,895.765 813,898.5C 815.761,899.499 817.094,901.499 817,904.5C 818.039,905.71 819.206,906.71 820.5,907.5C 821.338,907.842 821.672,908.508 821.5,909.5C 822.091,910.151 822.757,910.818 823.5,911.5C 823.291,912.086 822.957,912.586 822.5,913C 826.413,917.402 830.08,921.902 833.5,926.5C 835.082,931.624 838.082,935.624 842.5,938.5C 844.104,939.287 844.771,940.62 844.5,942.5C 844.932,943.71 845.599,944.71 846.5,945.5C 846.833,946.5 847.5,947.167 848.5,947.5C 849.167,947.5 849.5,947.833 849.5,948.5C 849.263,949.791 849.596,950.791 850.5,951.5C 854.684,959.682 860.017,967.015 866.5,973.5C 867.167,973.5 867.5,973.833 867.5,974.5C 867.989,975.995 868.655,977.329 869.5,978.5C 872.626,985.795 877.126,992.129 883,997.5C 885.784,1001.95 888.117,1006.61 890,1011.5C 894.469,1015.46 898.302,1019.79 901.5,1024.5C 902.404,1025.21 902.737,1026.21 902.5,1027.5C 903.301,1029.04 903.634,1030.71 903.5,1032.5C 835.166,1032.67 766.833,1032.5 698.5,1032C 694.462,1028.82 691.462,1024.98 689.5,1020.5C 689.167,1019.5 688.5,1018.83 687.5,1018.5C 687.068,1017.29 686.401,1016.29 685.5,1015.5C 685.011,1014 684.345,1012.67 683.5,1011.5C 683.167,1010.5 682.5,1009.83 681.5,1009.5C 680.508,1009.67 679.842,1009.34 679.5,1008.5C 676.248,999.385 671.081,991.385 664,984.5C 661.667,980.167 659.333,975.833 657,971.5C 655.02,969.101 652.853,967.101 650.5,965.5C 649.596,964.791 649.263,963.791 649.5,962.5C 649.068,961.29 648.401,960.29 647.5,959.5C 643.221,952.715 638.721,946.048 634,939.5C 632.961,938.29 631.794,937.29 630.5,936.5C 629.596,935.791 629.263,934.791 629.5,933.5C 629.068,932.29 628.401,931.29 627.5,930.5C 627.167,929.5 626.5,928.833 625.5,928.5C 624.833,928.5 624.5,928.167 624.5,927.5C 624.068,926.29 623.401,925.29 622.5,924.5C 621.599,923.71 620.932,922.71 620.5,921.5C 619.204,915.378 616.037,910.378 611,906.5C 603.71,895.703 596.543,885.036 589.5,874.5C 582.65,865.239 575.983,855.906 569.5,846.5C 567.844,844.54 566.177,842.54 564.5,840.5C 564.011,839.005 563.345,837.671 562.5,836.5C 562.011,835.005 561.345,833.671 560.5,832.5C 557.621,826.782 554.121,821.449 550,816.5C 548.871,814.859 547.371,813.859 545.5,813.5C 544.596,812.791 544.263,811.791 544.5,810.5C 544.108,808.821 543.608,807.154 543,805.5C 538.671,800.114 534.171,794.948 529.5,790C 530.451,789.282 530.617,788.449 530,787.5C 522.919,778.6 516.086,769.6 509.5,760.5C 508.662,760.158 508.328,759.492 508.5,758.5C 508.103,757.475 507.437,757.308 506.5,758C 501.124,763.953 496.124,770.12 491.5,776.5C 491.5,776.833 491.5,777.167 491.5,777.5C 490.92,779.749 489.587,781.415 487.5,782.5C 482.965,785.035 479.298,788.701 476.5,793.5C 471.741,795.242 469.407,798.575 469.5,803.5C 467.457,806.543 464.79,808.876 461.5,810.5C 460.5,810.833 459.833,811.5 459.5,812.5C 458.375,813.348 458.375,814.348 459.5,815.5C 458.738,817.262 457.404,818.262 455.5,818.5C 451.413,823.646 447.079,828.646 442.5,833.5C 441.974,835.23 440.974,836.564 439.5,837.5C 438.5,837.833 437.833,838.5 437.5,839.5C 436.599,840.29 435.932,841.29 435.5,842.5C 433.622,843.532 431.955,844.866 430.5,846.5C 424.152,853.518 418.152,860.851 412.5,868.5C 411.5,868.833 410.833,869.5 410.5,870.5C 409.599,871.29 408.932,872.29 408.5,873.5C 408.262,875.404 407.262,876.738 405.5,877.5C 401.912,880.259 398.746,883.592 396,887.5C 393.667,889.5 391.333,891.5 389,893.5C 387.757,896.576 385.923,899.243 383.5,901.5C 383.573,903.027 382.906,904.027 381.5,904.5C 380.5,904.833 379.833,905.5 379.5,906.5C 370.908,915.61 362.742,925.276 355,935.5C 351.102,936.916 348.769,939.583 348,943.5C 343.946,946.889 340.612,950.889 338,955.5C 330.996,962.171 324.329,969.171 318,976.5C 316.441,978.217 315.608,980.217 315.5,982.5C 314.167,983.833 312.833,985.167 311.5,986.5C 309.231,988.582 306.731,990.582 304,992.5C 299.561,998.052 295.394,1003.72 291.5,1009.5C 290.5,1009.83 289.833,1010.5 289.5,1011.5C 288.5,1011.83 287.833,1012.5 287.5,1013.5C 286.599,1014.29 285.932,1015.29 285.5,1016.5C 284.5,1016.83 283.833,1017.5 283.5,1018.5C 282.599,1019.29 281.932,1020.29 281.5,1021.5C 280.448,1021.35 279.448,1021.52 278.5,1022C 276.063,1025.56 273.396,1028.89 270.5,1032C 250.503,1032.5 230.503,1032.67 210.5,1032.5C 210.366,1030.71 210.699,1029.04 211.5,1027.5C 211.427,1025.97 212.094,1024.97 213.5,1024.5C 216.463,1021.71 219.63,1019.05 223,1016.5C 226.362,1011.97 229.529,1007.3 232.5,1002.5C 234.854,1000.81 236.854,998.812 238.5,996.5C 240.5,995.024 242.167,993.191 243.5,991C 243.167,990.667 242.833,990.333 242.5,990C 248.321,985.843 253.154,980.676 257,974.5C 259.333,972.833 261.667,971.167 264,969.5C 265.437,965.045 268.104,961.378 272,958.5C 273.777,955.941 275.277,953.274 276.5,950.5C 277.833,949.167 279.167,947.833 280.5,946.5C 288.891,939.772 295.891,931.772 301.5,922.5C 302.357,919.08 304.357,916.746 307.5,915.5C 308.5,915.167 309.167,914.5 309.5,913.5C 310.5,913.167 311.167,912.5 311.5,911.5C 314.086,907.078 317.586,903.411 322,900.5C 323.929,897.526 325.762,894.526 327.5,891.5C 328.167,890.167 329.167,889.167 330.5,888.5C 331.5,888.167 332.167,887.5 332.5,886.5C 333.5,886.167 334.167,885.5 334.5,884.5C 335.5,884.167 336.167,883.5 336.5,882.5C 336.229,880.62 336.896,879.287 338.5,878.5C 341.822,877.342 343.988,875.008 345,871.5C 349.949,868.233 353.449,863.899 355.5,858.5C 356.262,856.738 357.596,855.738 359.5,855.5C 360.5,855.167 361.167,854.5 361.5,853.5C 361.427,851.973 362.094,850.973 363.5,850.5C 370.442,843.387 377.275,836.054 384,828.5C 384.41,827.099 384.91,825.766 385.5,824.5C 386.167,823.167 387.167,822.167 388.5,821.5C 390.797,819.706 392.963,817.706 395,815.5C 395.692,814.563 395.525,813.897 394.5,813.5C 398.771,809.731 402.938,805.731 407,801.5C 409.889,796.603 413.555,792.27 418,788.5C 418.483,787.552 418.649,786.552 418.5,785.5C 421.99,784.603 424.156,782.27 425,778.5C 430.466,775.038 434.466,770.371 437,764.5C 443.946,760.069 448.779,754.069 451.5,746.5C 455.274,745.694 457.774,743.361 459,739.5C 461.185,738.072 463.185,736.405 465,734.5C 467.948,729.553 471.615,725.219 476,721.5C 476.49,720.207 476.657,718.873 476.5,717.5C 476.328,716.508 476.662,715.842 477.5,715.5C 478.598,714.399 478.765,713.066 478,711.5C 475.134,708.844 473.301,706.011 472.5,703C 468.567,699.062 465.4,694.562 463,689.5C 460.667,687.167 458.333,684.833 456,682.5C 453.024,678.364 450.524,674.03 448.5,669.5C 448.167,668.5 447.5,667.833 446.5,667.5C 446.068,666.29 445.401,665.29 444.5,664.5C 439.659,656.822 434.326,649.489 428.5,642.5C 426.273,641.599 425.273,639.933 425.5,637.5C 425.167,636.5 424.5,635.833 423.5,635.5C 421.896,634.713 421.229,633.38 421.5,631.5C 421.167,630.5 420.5,629.833 419.5,629.5C 418.833,629.5 418.5,629.167 418.5,628.5C 418.657,627.127 418.49,625.793 418,624.5C 408.637,610.986 399.137,597.653 389.5,584.5C 388.5,584.167 387.833,583.5 387.5,582.5C 387.068,581.29 386.401,580.29 385.5,579.5C 383.604,576.343 381.438,573.343 379,570.5C 378.667,569.167 378.333,567.833 378,566.5C 374.524,563.539 371.691,560.206 369.5,556.5C 369.011,555.005 368.345,553.671 367.5,552.5C 367.167,551.5 366.5,550.833 365.5,550.5C 365.011,549.005 364.345,547.671 363.5,546.5C 363.167,545.5 362.5,544.833 361.5,544.5C 361.167,543.5 360.5,542.833 359.5,542.5C 358.5,542.167 357.833,541.5 357.5,540.5C 357.657,539.127 357.49,537.793 357,536.5C 353.937,532.431 351.27,528.098 349,523.5C 347.045,522.547 345.378,521.213 344,519.5C 340.567,514.403 337.567,509.069 335,503.5C 333.989,502.663 332.822,502.33 331.5,502.5C 331.598,500.447 330.931,498.78 329.5,497.5C 329.068,496.29 328.401,495.29 327.5,494.5C 321.676,485.653 315.676,476.986 309.5,468.5C 309.068,467.29 308.401,466.29 307.5,465.5C 307.167,464.5 306.5,463.833 305.5,463.5C 305.011,462.005 304.345,460.671 303.5,459.5C 302.5,458.5 301.5,457.5 300.5,456.5C 299.094,456.027 298.427,455.027 298.5,453.5C 297.568,450.733 296.401,448.067 295,445.5C 286.248,433.597 277.748,421.597 269.5,409.5C 265.958,403.778 261.791,398.444 257,393.5C 255.455,389.132 252.955,385.466 249.5,382.5C 249.5,381.833 249.5,381.167 249.5,380.5C 249.167,379.5 248.5,378.833 247.5,378.5C 245.088,378.306 244.088,376.973 244.5,374.5C 244.068,373.29 243.401,372.29 242.5,371.5C 239.956,370.292 238.622,368.292 238.5,365.5C 237.852,363.914 237.352,362.247 237,360.5C 233.063,355.624 228.896,350.957 224.5,346.5C 223.508,346.672 222.842,346.338 222.5,345.5C 223.625,344.348 223.625,343.348 222.5,342.5C 218.761,336.817 214.928,331.15 211,325.5C 210.506,323.866 210.34,322.199 210.5,320.5C 278.167,320.333 345.834,320.5 413.5,321C 416.271,323.358 418.937,325.858 421.5,328.5C 427.284,337.566 433.284,346.232 439.5,354.5 Z M 308.5,372.5 C 335.841,372.167 363.175,372.5 390.5,373.5C 391.833,374.833 393.167,376.167 394.5,377.5C 399.491,385.98 404.658,394.314 410,402.5C 414.273,404.954 416.94,408.621 418,413.5C 424.703,422.984 431.037,432.65 437,442.5C 443.373,449.377 449.207,456.71 454.5,464.5C 458.874,472.804 463.707,480.804 469,488.5C 470.11,490.037 471.61,490.703 473.5,490.5C 476.525,499.288 481.358,506.955 488,513.5C 491.359,518.552 494.359,523.885 497,529.5C 498.257,531.746 500.09,533.079 502.5,533.5C 506.119,540.654 510.453,547.487 515.5,554C 518.238,559.257 521.238,564.424 524.5,569.5C 527.337,570.509 528.67,572.509 528.5,575.5C 529.5,575.5 530.5,575.5 531.5,575.5C 531.351,576.552 531.517,577.552 532,578.5C 534.479,582.639 537.313,586.472 540.5,590C 540.043,590.414 539.709,590.914 539.5,591.5C 540.274,592.711 541.107,592.711 542,591.5C 545.38,598.738 549.714,605.405 555,611.5C 556.413,613.652 557.246,615.986 557.5,618.5C 559.143,618.48 560.476,619.147 561.5,620.5C 563.176,625.043 565.843,628.876 569.5,632C 568.391,633.813 569.058,634.646 571.5,634.5C 573.214,638.166 575.047,641.833 577,645.5C 589.405,659.976 600.072,675.643 609,692.5C 615.54,700.375 621.707,708.541 627.5,717C 627.043,717.414 626.709,717.914 626.5,718.5C 627.274,719.711 628.107,719.711 629,718.5C 633.592,726.604 638.426,734.604 643.5,742.5C 647.454,746.434 651.121,750.601 654.5,755C 653.391,756.813 654.058,757.646 656.5,757.5C 661.217,767.641 667.217,776.974 674.5,785.5C 675.429,786.689 675.762,788.022 675.5,789.5C 676.675,789.281 677.675,789.614 678.5,790.5C 680.056,793.123 681.722,795.623 683.5,798C 683.043,798.414 682.709,798.914 682.5,799.5C 686.358,804.118 690.358,808.618 694.5,813C 693.549,813.718 693.383,814.551 694,815.5C 697.408,819.488 700.408,823.822 703,828.5C 706.847,831.253 709.181,834.586 710,838.5C 711.314,839.313 712.481,840.313 713.5,841.5C 718.86,849.197 723.86,857.197 728.5,865.5C 736.622,875.043 743.788,885.376 750,896.5C 751.314,897.313 752.481,898.313 753.5,899.5C 756.366,906.346 760.366,912.346 765.5,917.5C 769.438,923.914 773.771,929.914 778.5,935.5C 781.316,942.14 785.149,948.14 790,953.5C 790.483,954.448 790.649,955.448 790.5,956.5C 792.39,956.297 793.89,956.963 795,958.5C 798.158,966.488 802.658,973.654 808.5,980C 808.355,980.772 808.022,981.439 807.5,982C 779.545,982.467 751.711,982.634 724,982.5C 718.904,973.272 713.404,964.272 707.5,955.5C 706.476,954.147 705.143,953.48 703.5,953.5C 701.922,950.353 700.422,947.02 699,943.5C 696.891,942.965 696.391,941.965 697.5,940.5C 695.807,939.772 694.307,938.772 693,937.5C 691.31,932.473 688.977,927.806 686,923.5C 682.368,920.471 679.535,916.804 677.5,912.5C 676.675,911.614 675.675,911.281 674.5,911.5C 673.857,908.047 672.524,904.881 670.5,902C 665.97,896.954 662.136,891.454 659,885.5C 656.891,884.965 656.391,883.965 657.5,882.5C 653.77,878.717 650.77,874.384 648.5,869.5C 647.675,868.614 646.675,868.281 645.5,868.5C 645.649,867.448 645.483,866.448 645,865.5C 639.05,858.409 634.05,850.743 630,842.5C 624.685,834.857 619.018,827.524 613,820.5C 611.706,819.146 611.54,817.812 612.5,816.5C 603.625,807.935 596.625,797.935 591.5,786.5C 589.183,784.684 587.016,782.684 585,780.5C 581.228,773.173 576.728,766.34 571.5,760C 572.451,759.282 572.617,758.449 572,757.5C 568.115,754.173 565.115,750.173 563,745.5C 561.622,743.787 559.955,742.453 558,741.5C 556.471,737.735 554.304,734.402 551.5,731.5C 552.326,730.549 552.492,729.549 552,728.5C 543.869,720.925 537.703,711.925 533.5,701.5C 532.808,702.025 532.308,702.692 532,703.5C 526.51,693.198 520.01,683.531 512.5,674.5C 509.863,669.369 507.029,664.369 504,659.5C 502.89,657.963 501.39,657.297 499.5,657.5C 498.075,652.4 495.742,647.734 492.5,643.5C 486.508,636.85 481.508,629.517 477.5,621.5C 475.178,619.343 473.011,617.01 471,614.5C 468.161,608.153 464.327,602.486 459.5,597.5C 460.891,595.064 460.391,594.398 458,595.5C 455.372,591.383 453.039,587.05 451,582.5C 448.891,581.965 448.391,580.965 449.5,579.5C 448.675,578.614 447.675,578.281 446.5,578.5C 445.956,576.42 445.122,574.42 444,572.5C 440.036,568.382 436.37,564.049 433,559.5C 432.273,557.047 431.273,554.714 430,552.5C 426.561,549.052 423.894,545.052 422,540.5C 419.891,539.965 419.391,538.965 420.5,537.5C 419.675,536.614 418.675,536.281 417.5,536.5C 409.731,525.015 401.898,513.349 394,501.5C 392.351,497.523 390.018,493.856 387,490.5C 386.517,489.552 386.351,488.552 386.5,487.5C 385.5,487.5 384.5,487.5 383.5,487.5C 382.021,484.542 380.521,481.542 379,478.5C 373.833,471.67 368.667,464.836 363.5,458C 363.957,457.586 364.291,457.086 364.5,456.5C 362.723,455.099 361.056,453.599 359.5,452C 360.622,450.387 360.122,449.22 358,448.5C 357.517,447.552 357.351,446.552 357.5,445.5C 355.857,445.52 354.524,444.853 353.5,443.5C 347.954,432.972 341.288,423.306 333.5,414.5C 330.027,407.022 325.361,400.356 319.5,394.5C 317.868,390.803 315.702,387.469 313,384.5C 311.734,380.541 309.568,377.041 306.5,374C 307.416,373.722 308.082,373.222 308.5,372.5 Z"/></g>
<g><path style="opacity:0.23" fill="#9b9c9b" d="M 420.5,325.5 C 420.56,324.957 420.893,324.624 421.5,324.5C 422.773,325.257 422.773,325.923 421.5,326.5C 421.5,325.833 421.167,325.5 420.5,325.5 Z"/></g>
<g><path style="opacity:0.149" fill="#9d9d9d" d="M 806.5,333.5 C 806.649,334.552 806.483,335.552 806,336.5C 793.667,350.833 781.333,365.167 769,379.5C 767.871,381.141 766.371,382.141 764.5,382.5C 767.463,378.202 770.797,374.202 774.5,370.5C 775.5,370.167 776.167,369.5 776.5,368.5C 786.466,356.863 796.466,345.196 806.5,333.5 Z"/></g>
<g><path style="opacity:0.095" fill="#9d9d9d" d="M 222.5,342.5 C 223.625,343.348 223.625,344.348 222.5,345.5C 221.375,344.652 221.375,343.652 222.5,342.5 Z"/></g>
<g><path style="opacity:0.159" fill="#9d9d9d" d="M 224.5,346.5 C 228.896,350.957 233.063,355.624 237,360.5C 237.352,362.247 237.852,363.914 238.5,365.5C 237.5,365.5 236.5,365.5 235.5,365.5C 235.07,361.898 233.237,359.231 230,357.5C 228.707,353.491 226.873,349.824 224.5,346.5 Z"/></g>
<g><path style="opacity:0.149" fill="#9d9e9d" d="M 439.5,354.5 C 440.833,354.5 441.5,355.167 441.5,356.5C 440.5,356.167 439.833,355.5 439.5,354.5 Z"/></g>
<g><path style="opacity:0.109" fill="#9d9d9d" d="M 441.5,356.5 C 442.496,356.414 443.329,356.748 444,357.5C 445.508,361.015 447.675,364.015 450.5,366.5C 451.916,370.336 454.083,373.669 457,376.5C 457.384,379.06 458.217,381.394 459.5,383.5C 453.281,374.754 447.281,365.754 441.5,356.5 Z"/></g>
<g><path style="opacity:0.203" fill="#9b9c9b" d="M 776.5,368.5 C 776.167,369.5 775.5,370.167 774.5,370.5C 774.5,369.167 775.167,368.5 776.5,368.5 Z"/></g>
<g><path style="opacity:0.093" fill="#9d9e9d" d="M 841.5,369.5 C 841.5,370.833 840.833,371.5 839.5,371.5C 839.833,370.5 840.5,369.833 841.5,369.5 Z"/></g>
<g><path style="opacity:0.125" fill="#9d9e9d" d="M 242.5,371.5 C 243.401,372.29 244.068,373.29 244.5,374.5C 242.952,374.179 242.285,373.179 242.5,371.5 Z"/></g>
<g><path style="opacity:0.093" fill="#9d9e9d" d="M 839.5,371.5 C 839.5,372.833 838.833,373.5 837.5,373.5C 837.833,372.5 838.5,371.833 839.5,371.5 Z"/></g>
<g><path style="opacity:0.091" fill="#9d9e9d" d="M 837.5,373.5 C 837.715,375.179 837.048,376.179 835.5,376.5C 835.932,375.29 836.599,374.29 837.5,373.5 Z"/></g>
<g><path style="opacity:0.159" fill="#9d9d9d" d="M 835.5,376.5 C 834.594,378.417 833.261,380.083 831.5,381.5C 831.833,382.167 832.167,382.833 832.5,383.5C 828.431,387.576 824.098,391.243 819.5,394.5C 821.766,390.564 824.766,387.231 828.5,384.5C 829.427,380.575 831.76,377.908 835.5,376.5 Z"/></g>
<g><path style="opacity:0.123" fill="#9d9e9d" d="M 247.5,378.5 C 248.5,378.833 249.167,379.5 249.5,380.5C 248.167,380.5 247.5,379.833 247.5,378.5 Z"/></g>
<g><path style="opacity:0.109" fill="#9d9d9d" d="M 249.5,382.5 C 252.955,385.466 255.455,389.132 257,393.5C 261.791,398.444 265.958,403.778 269.5,409.5C 269.167,409.5 268.833,409.5 268.5,409.5C 267.833,409.167 267.167,408.833 266.5,408.5C 260.869,400.366 255.036,392.366 249,384.5C 248.308,383.563 248.475,382.897 249.5,382.5 Z"/></g>
<g><path style="opacity:0.121" fill="#9d9d9d" d="M 764.5,382.5 C 759.831,388.676 755.331,395.01 751,401.5C 746.972,404.363 743.472,407.696 740.5,411.5C 742.193,406.799 745.193,403.132 749.5,400.5C 753.169,395.006 757.002,389.673 761,384.5C 761.816,383.177 762.983,382.511 764.5,382.5 Z"/></g>
<g><path style="opacity:0.116" fill="#9d9e9d" d="M 459.5,383.5 C 460.833,383.5 461.5,384.167 461.5,385.5C 460.5,385.167 459.833,384.5 459.5,383.5 Z"/></g>
<g><path style="opacity:0.12" fill="#9d9e9d" d="M 464.5,389.5 C 466.048,389.821 466.715,390.821 466.5,392.5C 465.599,391.71 464.932,390.71 464.5,389.5 Z"/></g>
<g><path style="opacity:0.125" fill="#9d9e9d" d="M 466.5,392.5 C 468.176,393.183 468.843,394.517 468.5,396.5C 467.655,395.329 466.989,393.995 466.5,392.5 Z"/></g>
<g><path style="opacity:0.112" fill="#9d9d9d" d="M 819.5,394.5 C 819.5,394.833 819.5,395.167 819.5,395.5C 819.5,396.167 819.167,396.5 818.5,396.5C 818.167,396.5 817.833,396.5 817.5,396.5C 817.833,395.5 818.5,394.833 819.5,394.5 Z"/></g>
<g><path style="opacity:0.233" fill="#9b9c9b" d="M 819.5,395.5 C 820.043,395.56 820.376,395.893 820.5,396.5C 819.743,397.773 819.077,397.773 818.5,396.5C 819.167,396.5 819.5,396.167 819.5,395.5 Z"/></g>
<g><path style="opacity:0.153" fill="#9d9d9d" d="M 468.5,396.5 C 471.619,398.723 474.453,401.39 477,404.5C 482.345,415.267 488.845,425.267 496.5,434.5C 497.799,436.758 498.799,439.092 499.5,441.5C 488.618,426.793 478.285,411.793 468.5,396.5 Z"/></g>
<g><path style="opacity:0.107" fill="#9d9e9d" d="M 810.5,405.5 C 810.5,406.833 809.833,407.5 808.5,407.5C 808.833,406.5 809.5,405.833 810.5,405.5 Z"/></g>
<g><path style="opacity:0.112" fill="#9d9e9d" d="M 808.5,407.5 C 808.5,407.833 808.5,408.167 808.5,408.5C 808.5,409.167 808.167,409.5 807.5,409.5C 807.167,409.5 806.833,409.5 806.5,409.5C 806.833,408.5 807.5,407.833 808.5,407.5 Z"/></g>
<g><path style="opacity:0.151" fill="#9b9c9b" d="M 266.5,408.5 C 267.167,408.833 267.833,409.167 268.5,409.5C 267.762,411.76 266.762,411.927 265.5,410C 266.056,409.617 266.389,409.117 266.5,408.5 Z"/></g>
<g><path style="opacity:0.146" fill="#9b9c9b" d="M 808.5,408.5 C 809.776,409.386 809.776,410.386 808.5,411.5C 807.702,411.043 807.369,410.376 807.5,409.5C 808.167,409.5 808.5,409.167 808.5,408.5 Z"/></g>
<g><path style="opacity:0.148" fill="#9d9d9d" d="M 269.5,409.5 C 277.748,421.597 286.248,433.597 295,445.5C 296.401,448.067 297.568,450.733 298.5,453.5C 297.022,453.762 295.689,453.429 294.5,452.5C 294.709,451.914 295.043,451.414 295.5,451C 288.641,441.125 282.141,430.959 276,420.5C 271.981,417.892 269.815,414.225 269.5,409.5 Z"/></g>
<g><path style="opacity:0.085" fill="#9d9d9d" d="M 806.5,409.5 C 805.956,411.58 805.122,413.58 804,415.5C 801.626,417.539 799.626,419.872 798,422.5C 796.736,424.607 794.903,425.607 792.5,425.5C 797.547,420.456 802.214,415.123 806.5,409.5 Z"/></g>
<g><path style="opacity:0.097" fill="#9d9d9d" d="M 736.5,416.5 C 729.112,424.882 721.778,433.215 714.5,441.5C 717.104,437.543 719.771,433.543 722.5,429.5C 726.496,425.836 730.163,421.836 733.5,417.5C 734.325,416.614 735.325,416.281 736.5,416.5 Z"/></g>
<g><path style="opacity:0.111" fill="#9d9e9d" d="M 792.5,425.5 C 792.5,426.833 791.833,427.5 790.5,427.5C 790.833,426.5 791.5,425.833 792.5,425.5 Z"/></g>
<g><path style="opacity:0.122" fill="#9d9e9d" d="M 783.5,436.5 C 783.5,437.833 782.833,438.5 781.5,438.5C 781.833,437.5 782.5,436.833 783.5,436.5 Z"/></g>
<g><path style="opacity:0.092" fill="#9d9d9d" d="M 781.5,438.5 C 780.282,441.588 778.782,444.588 777,447.5C 772.643,450.357 769.143,454.023 766.5,458.5C 765.675,459.386 764.675,459.719 763.5,459.5C 766.79,454.376 770.957,450.042 776,446.5C 777.104,443.279 778.937,440.612 781.5,438.5 Z"/></g>
<g><path style="opacity:0.112" fill="#9d9d9d" d="M 499.5,441.5 C 501.592,441.561 503.092,442.561 504,444.5C 507.482,450.12 510.982,455.787 514.5,461.5C 517.637,463.237 519.303,465.903 519.5,469.5C 517.027,469.396 516.361,468.396 517.5,466.5C 510.768,458.705 504.768,450.371 499.5,441.5 Z"/></g>
<g><path style="opacity:0.129" fill="#9d9e9d" d="M 714.5,441.5 C 714.167,442.5 713.5,443.167 712.5,443.5C 712.5,442.167 713.167,441.5 714.5,441.5 Z"/></g>
<g><path style="opacity:0.131" fill="#9d9e9d" d="M 712.5,443.5 C 712.011,444.995 711.345,446.329 710.5,447.5C 710.157,445.517 710.824,444.183 712.5,443.5 Z"/></g>
<g><path style="opacity:0.097" fill="#9d9d9d" d="M 705.5,451.5 C 701.324,458.88 695.991,465.214 689.5,470.5C 690.32,466.424 692.653,463.757 696.5,462.5C 698.5,458.833 700.5,455.167 702.5,451.5C 703.5,451.5 704.5,451.5 705.5,451.5 Z"/></g>
<g><path style="opacity:0.117" fill="#9d9e9d" d="M 300.5,456.5 C 301.5,457.5 302.5,458.5 303.5,459.5C 302.5,459.5 301.5,459.5 300.5,459.5C 300.5,458.5 300.5,457.5 300.5,456.5 Z"/></g>
<g><path style="opacity:0.118" fill="#9d9e9d" d="M 303.5,459.5 C 304.345,460.671 305.011,462.005 305.5,463.5C 303.824,462.817 303.157,461.483 303.5,459.5 Z"/></g>
<g><path style="opacity:0.142" fill="#9d9e9d" d="M 763.5,459.5 C 763.715,461.179 763.048,462.179 761.5,462.5C 761.932,461.29 762.599,460.29 763.5,459.5 Z"/></g>
<g><path style="opacity:0.115" fill="#9d9e9d" d="M 305.5,463.5 C 306.5,463.833 307.167,464.5 307.5,465.5C 306.167,465.5 305.5,464.833 305.5,463.5 Z"/></g>
<g><path style="opacity:0.114" fill="#9d9e9d" d="M 307.5,465.5 C 308.401,466.29 309.068,467.29 309.5,468.5C 307.952,468.179 307.285,467.179 307.5,465.5 Z"/></g>
<g><path style="opacity:0.11" fill="#9d9d9d" d="M 757.5,467.5 C 757.649,468.552 757.483,469.552 757,470.5C 750.218,476.148 744.385,482.481 739.5,489.5C 738.833,489.5 738.5,489.833 738.5,490.5C 737.167,490.833 737.167,491.167 738.5,491.5C 737.965,493.446 736.632,494.446 734.5,494.5C 735.09,493.234 735.59,491.901 736,490.5C 740.114,487.061 743.447,483.061 746,478.5C 749.755,474.574 753.589,470.908 757.5,467.5 Z"/></g>
<g><path style="opacity:0.107" fill="#9d9d9d" d="M 309.5,468.5 C 315.676,476.986 321.676,485.653 327.5,494.5C 326.325,494.719 325.325,494.386 324.5,493.5C 320.844,487.524 316.844,481.857 312.5,476.5C 310.517,474.19 309.517,471.523 309.5,468.5 Z"/></g>
<g><path style="opacity:0.151" fill="#9d9d9d" d="M 681.5,478.5 C 682.625,479.652 682.625,480.652 681.5,481.5C 680.375,480.348 680.375,479.348 681.5,478.5 Z"/></g>
<g><path style="opacity:0.124" fill="#9d9e9d" d="M 526.5,480.5 C 528.048,480.821 528.715,481.821 528.5,483.5C 527.599,482.71 526.932,481.71 526.5,480.5 Z"/></g>
<g><path style="opacity:0.148" fill="#9d9d9d" d="M 528.5,483.5 C 529.822,483.33 530.989,483.663 532,484.5C 536.715,491.492 540.882,498.826 544.5,506.5C 539.411,500.355 534.411,494.188 529.5,488C 530.743,486.184 530.41,484.684 528.5,483.5 Z"/></g>
<g><path style="opacity:0.147" fill="#9d9d9d" d="M 676.5,485.5 C 676.155,488.374 674.655,490.374 672,491.5C 671.279,496.387 668.446,499.054 663.5,499.5C 664.704,497.46 666.371,495.794 668.5,494.5C 669.821,490.201 672.488,487.201 676.5,485.5 Z"/></g>
<g><path style="opacity:0.189" fill="#9b9c9b" d="M 739.5,489.5 C 740.757,490.623 740.424,491.289 738.5,491.5C 738.5,491.167 738.5,490.833 738.5,490.5C 738.5,489.833 738.833,489.5 739.5,489.5 Z"/></g>
<g><path style="opacity:0.152" fill="#9d9e9d" d="M 327.5,494.5 C 328.401,495.29 329.068,496.29 329.5,497.5C 327.952,497.179 327.285,496.179 327.5,494.5 Z"/></g>
<g><path style="opacity:0.145" fill="#9d9d9d" d="M 329.5,497.5 C 330.931,498.78 331.598,500.447 331.5,502.5C 332.822,502.33 333.989,502.663 335,503.5C 337.567,509.069 340.567,514.403 344,519.5C 345.378,521.213 347.045,522.547 349,523.5C 351.27,528.098 353.937,532.431 357,536.5C 357.49,537.793 357.657,539.127 357.5,540.5C 352.991,536.223 349.657,531.057 347.5,525C 343.81,520.723 340.31,516.223 337,511.5C 335.587,509.348 334.754,507.014 334.5,504.5C 333.178,504.67 332.011,504.337 331,503.5C 330.187,501.564 329.687,499.564 329.5,497.5 Z"/></g>
<g><path style="opacity:0.144" fill="#9d9d9d" d="M 731.5,497.5 C 729.878,500.455 727.878,503.122 725.5,505.5C 724.833,505.5 724.5,505.833 724.5,506.5C 720.019,512.43 715.019,518.097 709.5,523.5C 706.874,528.787 703.207,533.12 698.5,536.5C 698.5,537.167 698.167,537.5 697.5,537.5C 696.167,537.833 696.167,538.167 697.5,538.5C 693.862,543.14 689.862,547.473 685.5,551.5C 685.167,552.167 684.833,552.833 684.5,553.5C 681.45,556.388 678.95,559.722 677,563.5C 673.623,566.054 670.456,568.721 667.5,571.5C 670.507,567.654 673.34,563.654 676,559.5C 681.913,552.584 688.246,545.917 695,539.5C 696.92,535.244 699.92,531.911 704,529.5C 706.534,523.629 710.534,518.962 716,515.5C 719.972,508.614 725.139,502.614 731.5,497.5 Z"/></g>
<g><path style="opacity:0.098" fill="#9d9e9d" d="M 662.5,501.5 C 662.068,502.71 661.401,503.71 660.5,504.5C 660.285,502.821 660.952,501.821 662.5,501.5 Z"/></g>
<g><path style="opacity:0.101" fill="#9d9e9d" d="M 660.5,504.5 C 660.167,505.5 659.5,506.167 658.5,506.5C 658.5,505.167 659.167,504.5 660.5,504.5 Z"/></g>
<g><path style="opacity:0.192" fill="#9b9c9b" d="M 725.5,505.5 C 726.043,505.56 726.376,505.893 726.5,506.5C 725.743,507.773 725.077,507.773 724.5,506.5C 724.5,505.833 724.833,505.5 725.5,505.5 Z"/></g>
<g><path style="opacity:0.132" fill="#9d9d9d" d="M 547.5,510.5 C 550.967,514.841 554.633,519.175 558.5,523.5C 558.291,524.086 557.957,524.586 557.5,525C 559.658,526.457 561.491,528.29 563,530.5C 566.543,535.552 569.71,540.885 572.5,546.5C 576.671,549.511 579.338,553.511 580.5,558.5C 578.526,556.572 577.026,554.239 576,551.5C 574.045,550.547 572.378,549.213 571,547.5C 570.194,544.554 568.861,541.888 567,539.5C 564.239,538.501 562.906,536.501 563,533.5C 557.194,526.207 552.028,518.54 547.5,510.5 Z"/></g>
<g><path style="opacity:0.163" fill="#9d9d9d" d="M 651.5,514.5 C 649.971,518.868 647.138,522.201 643,524.5C 642.667,525.833 642.333,527.167 642,528.5C 638.909,532.061 635.409,535.061 631.5,537.5C 633.451,534.87 635.451,532.204 637.5,529.5C 638.325,528.614 639.325,528.281 640.5,528.5C 640.34,526.801 640.506,525.134 641,523.5C 644.842,520.732 648.342,517.732 651.5,514.5 Z"/></g>
<g><path style="opacity:0.207" fill="#9b9c9b" d="M 698.5,536.5 C 699.757,537.623 699.424,538.289 697.5,538.5C 697.5,538.167 697.5,537.833 697.5,537.5C 698.167,537.5 698.5,537.167 698.5,536.5 Z"/></g>
<g><path style="opacity:0.151" fill="#9d9d9d" d="M 631.5,537.5 C 631.108,539.179 630.608,540.846 630,542.5C 621.333,553.157 612,563.157 602,572.5C 601.439,574.725 600.439,576.725 599,578.5C 597.893,579.712 597.393,579.379 597.5,577.5C 598.833,577.167 598.833,576.833 597.5,576.5C 597.821,574.952 598.821,574.285 600.5,574.5C 600.351,573.448 600.517,572.448 601,571.5C 604.806,567.885 608.139,563.885 611,559.5C 612.586,558.624 614.086,557.624 615.5,556.5C 620.216,549.467 625.55,543.133 631.5,537.5 Z"/></g>
<g><path style="opacity:0.103" fill="#9d9e9d" d="M 359.5,542.5 C 360.5,542.833 361.167,543.5 361.5,544.5C 360.167,544.5 359.5,543.833 359.5,542.5 Z"/></g>
<g><path style="opacity:0.102" fill="#9d9e9d" d="M 361.5,544.5 C 362.5,544.833 363.167,545.5 363.5,546.5C 362.167,546.5 361.5,545.833 361.5,544.5 Z"/></g>
<g><path style="opacity:0.111" fill="#9d9e9d" d="M 363.5,546.5 C 364.345,547.671 365.011,549.005 365.5,550.5C 363.824,549.817 363.157,548.483 363.5,546.5 Z"/></g>
<g><path style="opacity:0.108" fill="#9d9e9d" d="M 365.5,550.5 C 366.5,550.833 367.167,551.5 367.5,552.5C 366.167,552.5 365.5,551.833 365.5,550.5 Z"/></g>
<g><path style="opacity:0.22" fill="#9b9c9b" d="M 685.5,551.5 C 686.757,552.623 686.424,553.289 684.5,553.5C 684.833,552.833 685.167,552.167 685.5,551.5 Z"/></g>
<g><path style="opacity:0.104" fill="#9d9e9d" d="M 367.5,552.5 C 368.345,553.671 369.011,555.005 369.5,556.5C 367.824,555.817 367.157,554.483 367.5,552.5 Z"/></g>
<g><path style="opacity:0.1" fill="#9d9d9d" d="M 369.5,556.5 C 371.691,560.206 374.524,563.539 378,566.5C 378.333,567.833 378.667,569.167 379,570.5C 381.438,573.343 383.604,576.343 385.5,579.5C 384.325,579.719 383.325,579.386 382.5,578.5C 379.638,574.679 377.305,570.679 375.5,566.5C 375.5,565.833 375.167,565.5 374.5,565.5C 373.207,563.704 371.707,562.037 370,560.5C 369.51,559.207 369.343,557.873 369.5,556.5 Z"/></g>
<g><path style="opacity:0.13" fill="#9d9e9d" d="M 580.5,558.5 C 582.048,558.821 582.715,559.821 582.5,561.5C 581.599,560.71 580.932,559.71 580.5,558.5 Z"/></g>
<g><path style="opacity:0.133" fill="#9d9e9d" d="M 582.5,561.5 C 584.176,562.183 584.843,563.517 584.5,565.5C 583.655,564.329 582.989,562.995 582.5,561.5 Z"/></g>
<g><path style="opacity:0.188" fill="#9b9c9b" d="M 374.5,565.5 C 375.167,565.5 375.5,565.833 375.5,566.5C 375.44,567.043 375.107,567.376 374.5,567.5C 373.227,566.743 373.227,566.077 374.5,565.5 Z"/></g>
<g><path style="opacity:0.116" fill="#9d9e9d" d="M 584.5,565.5 C 587.248,565.402 587.914,566.402 586.5,568.5C 585.599,567.71 584.932,566.71 584.5,565.5 Z"/></g>
<g><path style="opacity:0.099" fill="#9d9d9d" d="M 588.5,569.5 C 590.017,569.511 591.184,570.177 592,571.5C 592.421,574.02 593.588,576.02 595.5,577.5C 595.631,578.239 595.464,578.906 595,579.5C 591.687,576.843 589.521,573.509 588.5,569.5 Z"/></g>
<g><path style="opacity:0.089" fill="#9d9e9d" d="M 667.5,571.5 C 667.5,572.833 666.833,573.5 665.5,573.5C 665.833,572.5 666.5,571.833 667.5,571.5 Z"/></g>
<g><path style="opacity:0.098" fill="#9d9e9d" d="M 665.5,573.5 C 665.843,575.483 665.176,576.817 663.5,577.5C 663.989,576.005 664.655,574.671 665.5,573.5 Z"/></g>
<g><path style="opacity:0.094" fill="#9d9e9d" d="M 663.5,577.5 C 663.5,578.833 662.833,579.5 661.5,579.5C 661.833,578.5 662.5,577.833 663.5,577.5 Z"/></g>
<g><path style="opacity:0.145" fill="#9d9e9d" d="M 385.5,579.5 C 386.401,580.29 387.068,581.29 387.5,582.5C 385.952,582.179 385.285,581.179 385.5,579.5 Z"/></g>
<g><path style="opacity:0.169" fill="#9d9d9d" d="M 660.5,580.5 C 658.5,583.167 656.5,585.833 654.5,588.5C 653.833,588.5 653.5,588.833 653.5,589.5C 650.691,593.588 647.358,597.254 643.5,600.5C 644.608,596.869 646.774,593.869 650,591.5C 652.324,586.676 655.824,583.01 660.5,580.5 Z"/></g>
<g><path style="opacity:0.143" fill="#9d9d9d" d="M 389.5,584.5 C 399.137,597.653 408.637,610.986 418,624.5C 418.49,625.793 418.657,627.127 418.5,628.5C 417.596,627.791 417.263,626.791 417.5,625.5C 416.5,625.5 415.5,625.5 414.5,625.5C 414.649,624.448 414.483,623.448 414,622.5C 409.476,617.368 405.976,611.701 403.5,605.5C 401.058,605.646 400.391,604.813 401.5,603C 396.116,597.732 392.116,591.566 389.5,584.5 Z"/></g>
<g><path style="opacity:0.185" fill="#9b9c9b" d="M 654.5,588.5 C 655.043,588.56 655.376,588.893 655.5,589.5C 654.743,590.773 654.077,590.773 653.5,589.5C 653.5,588.833 653.833,588.5 654.5,588.5 Z"/></g>
<g><path style="opacity:0.131" fill="#9d9d9d" d="M 631.5,613.5 C 631.649,614.552 631.483,615.552 631,616.5C 628.642,618.024 626.809,620.024 625.5,622.5C 629.221,627.047 632.721,631.714 636,636.5C 637.61,638.992 638.776,641.659 639.5,644.5C 636.581,640.289 633.748,635.956 631,631.5C 628.667,629.167 626.333,626.833 624,624.5C 623.333,622.833 623.333,621.167 624,619.5C 626.727,617.584 629.227,615.584 631.5,613.5 Z"/></g>
<g><path style="opacity:0.095" fill="#9d9e9d" d="M 419.5,629.5 C 420.5,629.833 421.167,630.5 421.5,631.5C 420.167,631.5 419.5,630.833 419.5,629.5 Z"/></g>
<g><path style="opacity:0.102" fill="#9d9e9d" d="M 423.5,635.5 C 424.5,635.833 425.167,636.5 425.5,637.5C 424.167,637.5 423.5,636.833 423.5,635.5 Z"/></g>
<g><path style="opacity:0.097" fill="#9d9d9d" d="M 428.5,642.5 C 434.326,649.489 439.659,656.822 444.5,664.5C 443.178,664.67 442.011,664.337 441,663.5C 438.248,657.874 434.581,652.874 430,648.5C 429.383,647.551 429.549,646.718 430.5,646C 429.177,645.184 428.511,644.017 428.5,642.5 Z"/></g>
<g><path style="opacity:0.115" fill="#9d9e9d" d="M 641.5,646.5 C 643.796,646.804 644.129,647.804 642.5,649.5C 641.596,648.791 641.263,647.791 641.5,646.5 Z"/></g>
<g><path style="opacity:0.097" fill="#9d9d9d" d="M 646.5,654.5 C 648.1,655.252 649.6,656.252 651,657.5C 651.374,659.491 652.207,661.158 653.5,662.5C 653.5,663.167 653.833,663.5 654.5,663.5C 657.083,666.467 659.083,669.8 660.5,673.5C 654.6,668.016 649.934,661.683 646.5,654.5 Z"/></g>
<g><path style="opacity:0.188" fill="#9b9c9b" d="M 654.5,663.5 C 653.833,663.5 653.5,663.167 653.5,662.5C 653.56,661.957 653.893,661.624 654.5,661.5C 655.773,662.257 655.773,662.923 654.5,663.5 Z"/></g>
<g><path style="opacity:0.137" fill="#9d9e9d" d="M 444.5,664.5 C 445.401,665.29 446.068,666.29 446.5,667.5C 444.952,667.179 444.285,666.179 444.5,664.5 Z"/></g>
<g><path style="opacity:0.132" fill="#9d9e9d" d="M 446.5,667.5 C 447.5,667.833 448.167,668.5 448.5,669.5C 447.167,669.5 446.5,668.833 446.5,667.5 Z"/></g>
<g><path style="opacity:0.137" fill="#9d9d9d" d="M 448.5,669.5 C 450.524,674.03 453.024,678.364 456,682.5C 458.333,684.833 460.667,687.167 463,689.5C 465.4,694.562 468.567,699.062 472.5,703C 473.301,706.011 475.134,708.844 478,711.5C 478.765,713.066 478.598,714.399 477.5,715.5C 472.657,706.714 466.99,698.048 460.5,689.5C 460.5,688.833 460.167,688.5 459.5,688.5C 456.202,685.261 453.369,681.595 451,677.5C 449.409,675.073 448.575,672.407 448.5,669.5 Z"/></g>
<g><path style="opacity:0.105" fill="#9d9e9d" d="M 661.5,676.5 C 662.833,676.5 663.5,677.167 663.5,678.5C 662.5,678.167 661.833,677.5 661.5,676.5 Z"/></g>
<g><path style="opacity:0.104" fill="#9d9e9d" d="M 663.5,678.5 C 665.176,679.183 665.843,680.517 665.5,682.5C 664.655,681.329 663.989,679.995 663.5,678.5 Z"/></g>
<g><path style="opacity:0.102" fill="#9d9e9d" d="M 665.5,682.5 C 666.833,682.5 667.5,683.167 667.5,684.5C 666.5,684.167 665.833,683.5 665.5,682.5 Z"/></g>
<g><path style="opacity:0.194" fill="#9b9c9b" d="M 459.5,688.5 C 460.167,688.5 460.5,688.833 460.5,689.5C 460.44,690.043 460.107,690.376 459.5,690.5C 458.227,689.743 458.227,689.077 459.5,688.5 Z"/></g>
<g><path style="opacity:0.141" fill="#9d9d9d" d="M 669.5,688.5 C 669.833,688.5 670.167,688.5 670.5,688.5C 670.833,689.5 671.5,690.167 672.5,690.5C 682.275,704.102 691.608,718.102 700.5,732.5C 693.269,722.717 685.769,713.05 678,703.5C 675.777,698.121 672.943,693.121 669.5,688.5 Z"/></g>
<g><path style="opacity:0.243" fill="#9b9c9b" d="M 670.5,688.5 C 671.833,688.5 672.5,689.167 672.5,690.5C 671.5,690.167 670.833,689.5 670.5,688.5 Z"/></g>
<g><path style="opacity:0.164" fill="#9d9d9d" d="M 476.5,717.5 C 476.657,718.873 476.49,720.207 476,721.5C 471.615,725.219 467.948,729.553 465,734.5C 463.185,736.405 461.185,738.072 459,739.5C 457.774,743.361 455.274,745.694 451.5,746.5C 454.787,742.21 458.454,738.21 462.5,734.5C 465.581,728.476 469.914,723.642 475.5,720C 474.117,718.539 474.451,717.706 476.5,717.5 Z"/></g>
<g><path style="opacity:0.146" fill="#9d9e9d" d="M 701.5,734.5 C 703.048,734.821 703.715,735.821 703.5,737.5C 702.599,736.71 701.932,735.71 701.5,734.5 Z"/></g>
<g><path style="opacity:0.094" fill="#9d9d9d" d="M 703.5,737.5 C 704.5,737.5 705.5,737.5 706.5,737.5C 708.715,743.574 712.215,748.907 717,753.5C 718.396,756.064 719.563,758.731 720.5,761.5C 717.403,756.352 713.569,751.685 709,747.5C 706.938,744.277 705.104,740.943 703.5,737.5 Z"/></g>
<g><path style="opacity:0.144" fill="#9d9d9d" d="M 451.5,746.5 C 448.779,754.069 443.946,760.069 437,764.5C 434.466,770.371 430.466,775.038 425,778.5C 424.156,782.27 421.99,784.603 418.5,785.5C 418.649,786.552 418.483,787.552 418,788.5C 413.555,792.27 409.889,796.603 407,801.5C 402.938,805.731 398.771,809.731 394.5,813.5C 393.475,813.103 393.308,812.437 394,811.5C 397.694,808.971 400.86,805.971 403.5,802.5C 404.167,802.5 404.5,802.167 404.5,801.5C 407.764,796.896 411.431,792.563 415.5,788.5C 416.167,788.5 416.5,788.167 416.5,787.5C 427.932,773.895 439.598,760.229 451.5,746.5 Z"/></g>
<g><path style="opacity:0.159" fill="#9d9d9d" d="M 508.5,758.5 C 503.744,764.379 498.744,770.046 493.5,775.5C 492.833,775.833 492.167,776.167 491.5,776.5C 496.124,770.12 501.124,763.953 506.5,758C 507.437,757.308 508.103,757.475 508.5,758.5 Z"/></g>
<g><path style="opacity:0.129" fill="#9d9d9d" d="M 509.5,760.5 C 516.086,769.6 522.919,778.6 530,787.5C 530.617,788.449 530.451,789.282 529.5,790C 534.171,794.948 538.671,800.114 543,805.5C 543.608,807.154 544.108,808.821 544.5,810.5C 538.751,803.888 533.084,797.055 527.5,790C 527.957,789.586 528.291,789.086 528.5,788.5C 524.007,782.313 519.341,776.313 514.5,770.5C 514.709,769.914 515.043,769.414 515.5,769C 512.51,766.847 510.51,764.013 509.5,760.5 Z"/></g>
<g><path style="opacity:0.107" fill="#9d9e9d" d="M 721.5,763.5 C 723.176,764.183 723.843,765.517 723.5,767.5C 722.655,766.329 721.989,764.995 721.5,763.5 Z"/></g>
<g><path style="opacity:0.107" fill="#9d9e9d" d="M 723.5,767.5 C 724.833,767.5 725.5,768.167 725.5,769.5C 724.5,769.167 723.833,768.5 723.5,767.5 Z"/></g>
<g><path style="opacity:0.231" fill="#9b9c9b" d="M 493.5,775.5 C 493.5,776.833 492.833,777.5 491.5,777.5C 491.5,777.167 491.5,776.833 491.5,776.5C 492.167,776.167 492.833,775.833 493.5,775.5 Z"/></g>
<g><path style="opacity:0.143" fill="#9d9d9d" d="M 730.5,776.5 C 734.907,779.767 738.074,784.1 740,789.5C 743.625,794.358 747.459,799.024 751.5,803.5C 751.291,804.086 750.957,804.586 750.5,805C 755.537,809.659 759.203,815.159 761.5,821.5C 754.141,812.291 747.308,802.624 741,792.5C 736.771,787.725 733.271,782.392 730.5,776.5 Z"/></g>
<g><path style="opacity:0.159" fill="#9d9d9d" d="M 487.5,782.5 C 483.842,786.347 480.675,790.68 478,795.5C 475.579,797.113 473.079,798.447 470.5,799.5C 470.768,801.099 470.434,802.432 469.5,803.5C 469.407,798.575 471.741,795.242 476.5,793.5C 479.298,788.701 482.965,785.035 487.5,782.5 Z"/></g>
<g><path style="opacity:0.188" fill="#9b9c9b" d="M 416.5,787.5 C 416.5,788.167 416.167,788.5 415.5,788.5C 414.957,788.44 414.624,788.107 414.5,787.5C 415.257,786.227 415.923,786.227 416.5,787.5 Z"/></g>
<g><path style="opacity:0.192" fill="#9b9c9b" d="M 404.5,801.5 C 404.5,802.167 404.167,802.5 403.5,802.5C 402.957,802.44 402.624,802.107 402.5,801.5C 403.257,800.227 403.923,800.227 404.5,801.5 Z"/></g>
<g><path style="opacity:0.101" fill="#9d9e9d" d="M 461.5,810.5 C 461.5,811.833 460.833,812.5 459.5,812.5C 459.833,811.5 460.5,810.833 461.5,810.5 Z"/></g>
<g><path style="opacity:0.092" fill="#9d9d9d" d="M 459.5,812.5 C 460.625,813.652 460.625,814.652 459.5,815.5C 458.375,814.348 458.375,813.348 459.5,812.5 Z"/></g>
<g><path style="opacity:0.104" fill="#9d9d9d" d="M 394.5,813.5 C 395.525,813.897 395.692,814.563 395,815.5C 392.963,817.706 390.797,819.706 388.5,821.5C 389.719,818.276 391.719,815.61 394.5,813.5 Z"/></g>
<g><path style="opacity:0.155" fill="#9d9d9d" d="M 545.5,813.5 C 547.371,813.859 548.871,814.859 550,816.5C 554.121,821.449 557.621,826.782 560.5,832.5C 558.857,832.52 557.524,831.853 556.5,830.5C 552.382,825.064 548.716,819.398 545.5,813.5 Z"/></g>
<g><path style="opacity:0.121" fill="#9d9d9d" d="M 455.5,818.5 C 453.276,825.337 448.943,830.337 442.5,833.5C 447.079,828.646 451.413,823.646 455.5,818.5 Z"/></g>
<g><path style="opacity:0.109" fill="#9d9d9d" d="M 385.5,824.5 C 384.91,825.766 384.41,827.099 384,828.5C 377.275,836.054 370.442,843.387 363.5,850.5C 363.343,849.127 363.51,847.793 364,846.5C 370.06,840.709 375.893,834.709 381.5,828.5C 382.429,827.311 382.762,825.978 382.5,824.5C 383.5,824.5 384.5,824.5 385.5,824.5 Z"/></g>
<g><path style="opacity:0.108" fill="#9d9d9d" d="M 763.5,825.5 C 764.5,825.5 765.5,825.5 766.5,825.5C 771.916,833.583 776.916,841.916 781.5,850.5C 775.561,842.211 769.561,833.878 763.5,825.5 Z"/></g>
<g><path style="opacity:0.129" fill="#9d9e9d" d="M 560.5,832.5 C 561.345,833.671 562.011,835.005 562.5,836.5C 560.824,835.817 560.157,834.483 560.5,832.5 Z"/></g>
<g><path style="opacity:0.13" fill="#9d9e9d" d="M 562.5,836.5 C 563.345,837.671 564.011,839.005 564.5,840.5C 562.824,839.817 562.157,838.483 562.5,836.5 Z"/></g>
<g><path style="opacity:0.116" fill="#9d9e9d" d="M 439.5,837.5 C 439.5,838.833 438.833,839.5 437.5,839.5C 437.833,838.5 438.5,837.833 439.5,837.5 Z"/></g>
<g><path style="opacity:0.124" fill="#9d9e9d" d="M 437.5,839.5 C 437.715,841.179 437.048,842.179 435.5,842.5C 435.932,841.29 436.599,840.29 437.5,839.5 Z"/></g>
<g><path style="opacity:0.084" fill="#9d9d9d" d="M 430.5,846.5 C 430.785,848.288 430.452,849.955 429.5,851.5C 425.765,854.731 422.598,858.397 420,862.5C 417.894,865.118 415.394,867.118 412.5,868.5C 418.152,860.851 424.152,853.518 430.5,846.5 Z"/></g>
<g><path style="opacity:0.115" fill="#9d9d9d" d="M 569.5,846.5 C 575.983,855.906 582.65,865.239 589.5,874.5C 587.857,874.52 586.524,873.853 585.5,872.5C 581.896,866.616 578.23,860.949 574.5,855.5C 574.5,854.833 574.167,854.5 573.5,854.5C 570.863,852.518 569.53,849.852 569.5,846.5 Z"/></g>
<g><path style="opacity:0.129" fill="#9d9e9d" d="M 361.5,853.5 C 361.167,854.5 360.5,855.167 359.5,855.5C 359.5,854.167 360.167,853.5 361.5,853.5 Z"/></g>
<g><path style="opacity:0.188" fill="#9b9c9b" d="M 573.5,854.5 C 574.167,854.5 574.5,854.833 574.5,855.5C 574.44,856.043 574.107,856.376 573.5,856.5C 572.227,855.743 572.227,855.077 573.5,854.5 Z"/></g>
<g><path style="opacity:0.115" fill="#9d9e9d" d="M 784.5,855.5 C 785.833,855.5 786.5,856.167 786.5,857.5C 785.5,857.167 784.833,856.5 784.5,855.5 Z"/></g>
<g><path style="opacity:0.098" fill="#9d9d9d" d="M 355.5,858.5 C 353.449,863.899 349.949,868.233 345,871.5C 343.988,875.008 341.822,877.342 338.5,878.5C 340.778,875.749 342.778,872.749 344.5,869.5C 348.335,865.885 352.001,862.219 355.5,858.5 Z"/></g>
<g><path style="opacity:0.126" fill="#9d9e9d" d="M 788.5,860.5 C 790.176,861.183 790.843,862.517 790.5,864.5C 789.655,863.329 788.989,861.995 788.5,860.5 Z"/></g>
<g><path style="opacity:0.159" fill="#9d9d9d" d="M 790.5,864.5 C 792.3,865.473 794.134,866.473 796,867.5C 796.617,868.449 796.451,869.282 795.5,870C 796.448,870.483 797.448,870.649 798.5,870.5C 798.343,871.873 798.51,873.207 799,874.5C 801.459,877.763 803.626,881.096 805.5,884.5C 806.167,884.5 806.5,884.833 806.5,885.5C 807.853,886.526 808.853,887.859 809.5,889.5C 807.284,888.797 805.451,887.464 804,885.5C 798.993,878.302 794.493,871.302 790.5,864.5 Z"/></g>
<g><path style="opacity:0.129" fill="#9d9e9d" d="M 412.5,868.5 C 412.5,869.833 411.833,870.5 410.5,870.5C 410.833,869.5 411.5,868.833 412.5,868.5 Z"/></g>
<g><path style="opacity:0.137" fill="#9d9e9d" d="M 410.5,870.5 C 410.715,872.179 410.048,873.179 408.5,873.5C 408.932,872.29 409.599,871.29 410.5,870.5 Z"/></g>
<g><path style="opacity:0.147" fill="#9d9d9d" d="M 589.5,874.5 C 596.543,885.036 603.71,895.703 611,906.5C 616.037,910.378 619.204,915.378 620.5,921.5C 611.068,910.437 602.902,898.437 596,885.5C 592.272,882.704 590.105,879.037 589.5,874.5 Z"/></g>
<g><path style="opacity:0.107" fill="#9d9d9d" d="M 405.5,877.5 C 400.454,884.402 395.121,891.069 389.5,897.5C 387.993,899.69 385.993,901.024 383.5,901.5C 385.923,899.243 387.757,896.576 389,893.5C 391.333,891.5 393.667,889.5 396,887.5C 398.746,883.592 401.912,880.259 405.5,877.5 Z"/></g>
<g><path style="opacity:0.233" fill="#9b9c9b" d="M 335.5,882.5 C 334.833,882.5 334.5,882.833 334.5,883.5C 333.957,883.44 333.624,883.107 333.5,882.5C 334.257,881.227 334.923,881.227 335.5,882.5 Z"/></g>
<g><path style="opacity:0.127" fill="#9d9d9d" d="M 335.5,882.5 C 335.833,882.5 336.167,882.5 336.5,882.5C 336.167,883.5 335.5,884.167 334.5,884.5C 334.5,884.167 334.5,883.833 334.5,883.5C 334.5,882.833 334.833,882.5 335.5,882.5 Z"/></g>
<g><path style="opacity:0.216" fill="#9b9c9b" d="M 805.5,884.5 C 805.56,883.957 805.893,883.624 806.5,883.5C 807.773,884.257 807.773,884.923 806.5,885.5C 806.5,884.833 806.167,884.5 805.5,884.5 Z"/></g>
<g><path style="opacity:0.115" fill="#9d9e9d" d="M 334.5,884.5 C 334.167,885.5 333.5,886.167 332.5,886.5C 332.5,885.167 333.167,884.5 334.5,884.5 Z"/></g>
<g><path style="opacity:0.114" fill="#9d9e9d" d="M 332.5,886.5 C 332.167,887.5 331.5,888.167 330.5,888.5C 330.5,887.167 331.167,886.5 332.5,886.5 Z"/></g>
<g><path style="opacity:0.14" fill="#9d9d9d" d="M 809.5,889.5 C 811.729,892.964 814.229,896.297 817,899.5C 817.982,902.294 819.149,904.961 820.5,907.5C 819.206,906.71 818.039,905.71 817,904.5C 817.094,901.499 815.761,899.499 813,898.5C 811.085,895.765 809.918,892.765 809.5,889.5 Z"/></g>
<g><path style="opacity:0.138" fill="#9d9d9d" d="M 327.5,891.5 C 325.762,894.526 323.929,897.526 322,900.5C 317.586,903.411 314.086,907.078 311.5,911.5C 312.537,905.798 315.537,901.465 320.5,898.5C 321.167,898.5 321.5,898.167 321.5,897.5C 322.971,895.784 323.971,893.784 324.5,891.5C 325.5,891.5 326.5,891.5 327.5,891.5 Z"/></g>
<g><path style="opacity:0.187" fill="#9b9c9b" d="M 321.5,897.5 C 321.5,898.167 321.167,898.5 320.5,898.5C 319.957,898.44 319.624,898.107 319.5,897.5C 320.257,896.227 320.923,896.227 321.5,897.5 Z"/></g>
<g><path style="opacity:0.148" fill="#9d9e9d" d="M 381.5,904.5 C 381.5,905.833 380.833,906.5 379.5,906.5C 379.833,905.5 380.5,904.833 381.5,904.5 Z"/></g>
<g><path style="opacity:0.142" fill="#9d9d9d" d="M 379.5,906.5 C 379.657,907.873 379.49,909.207 379,910.5C 370.93,918.29 363.597,926.624 357,935.5C 355.104,937.53 352.937,939.197 350.5,940.5C 349.719,941.729 349.219,943.062 349,944.5C 337.939,957.386 326.773,970.052 315.5,982.5C 315.608,980.217 316.441,978.217 318,976.5C 324.329,969.171 330.996,962.171 338,955.5C 340.612,950.889 343.946,946.889 348,943.5C 348.769,939.583 351.102,936.916 355,935.5C 362.742,925.276 370.908,915.61 379.5,906.5 Z"/></g>
<g><path style="opacity:0.118" fill="#9d9d9d" d="M 821.5,909.5 C 822.822,909.33 823.989,909.663 825,910.5C 827.59,914.679 829.923,919.013 832,923.5C 833.586,924.376 835.086,925.376 836.5,926.5C 836.291,927.086 835.957,927.586 835.5,928C 838.373,931.115 840.706,934.615 842.5,938.5C 838.082,935.624 835.082,931.624 833.5,926.5C 830.08,921.902 826.413,917.402 822.5,913C 822.957,912.586 823.291,912.086 823.5,911.5C 822.757,910.818 822.091,910.151 821.5,909.5 Z"/></g>
<g><path style="opacity:0.101" fill="#9d9e9d" d="M 311.5,911.5 C 311.167,912.5 310.5,913.167 309.5,913.5C 309.5,912.167 310.167,911.5 311.5,911.5 Z"/></g>
<g><path style="opacity:0.102" fill="#9d9e9d" d="M 309.5,913.5 C 309.167,914.5 308.5,915.167 307.5,915.5C 307.5,914.167 308.167,913.5 309.5,913.5 Z"/></g>
<g><path style="opacity:0.16" fill="#9d9d9d" d="M 301.5,922.5 C 295.891,931.772 288.891,939.772 280.5,946.5C 285.059,941.04 289.393,935.374 293.5,929.5C 294.167,929.5 294.5,929.167 294.5,928.5C 296.607,926.273 298.94,924.273 301.5,922.5 Z"/></g>
<g><path style="opacity:0.119" fill="#9d9e9d" d="M 622.5,924.5 C 623.401,925.29 624.068,926.29 624.5,927.5C 622.952,927.179 622.285,926.179 622.5,924.5 Z"/></g>
<g><path style="opacity:0.185" fill="#9b9c9b" d="M 294.5,928.5 C 294.5,929.167 294.167,929.5 293.5,929.5C 292.957,929.44 292.624,929.107 292.5,928.5C 293.257,927.227 293.923,927.227 294.5,928.5 Z"/></g>
<g><path style="opacity:0.114" fill="#9d9e9d" d="M 625.5,928.5 C 626.5,928.833 627.167,929.5 627.5,930.5C 626.167,930.5 625.5,929.833 625.5,928.5 Z"/></g>
<g><path style="opacity:0.113" fill="#9d9e9d" d="M 627.5,930.5 C 628.401,931.29 629.068,932.29 629.5,933.5C 627.952,933.179 627.285,932.179 627.5,930.5 Z"/></g>
<g><path style="opacity:0.105" fill="#9d9d9d" d="M 630.5,936.5 C 631.794,937.29 632.961,938.29 634,939.5C 638.721,946.048 643.221,952.715 647.5,959.5C 644.159,958.802 642.159,956.802 641.5,953.5C 641.5,952.833 641.167,952.5 640.5,952.5C 636.762,947.427 633.429,942.093 630.5,936.5 Z"/></g>
<g><path style="opacity:0.125" fill="#9d9e9d" d="M 844.5,942.5 C 846.048,942.821 846.715,943.821 846.5,945.5C 845.599,944.71 844.932,943.71 844.5,942.5 Z"/></g>
<g><path style="opacity:0.118" fill="#9d9e9d" d="M 846.5,945.5 C 847.833,945.5 848.5,946.167 848.5,947.5C 847.5,947.167 846.833,946.5 846.5,945.5 Z"/></g>
<g><path style="opacity:0.116" fill="#9d9e9d" d="M 849.5,948.5 C 851.796,948.804 852.129,949.804 850.5,951.5C 849.596,950.791 849.263,949.791 849.5,948.5 Z"/></g>
<g><path style="opacity:0.149" fill="#9d9d9d" d="M 276.5,950.5 C 275.277,953.274 273.777,955.941 272,958.5C 268.104,961.378 265.437,965.045 264,969.5C 261.667,971.167 259.333,972.833 257,974.5C 253.154,980.676 248.321,985.843 242.5,990C 242.833,990.333 243.167,990.667 243.5,991C 242.167,993.191 240.5,995.024 238.5,996.5C 239.66,990.521 242.993,986.188 248.5,983.5C 251.309,979.523 254.309,975.69 257.5,972C 258.9,970.562 260.567,969.729 262.5,969.5C 262.34,967.801 262.506,966.134 263,964.5C 268.001,960.332 272.501,955.665 276.5,950.5 Z"/></g>
<g><path style="opacity:0.153" fill="#9d9d9d" d="M 850.5,951.5 C 851.822,951.33 852.989,951.663 854,952.5C 858.458,959.441 862.625,966.441 866.5,973.5C 860.017,967.015 854.684,959.682 850.5,951.5 Z"/></g>
<g><path style="opacity:0.189" fill="#9b9c9b" d="M 640.5,952.5 C 641.167,952.5 641.5,952.833 641.5,953.5C 641.44,954.043 641.107,954.376 640.5,954.5C 639.227,953.743 639.227,953.077 640.5,952.5 Z"/></g>
<g><path style="opacity:0.151" fill="#9d9e9d" d="M 647.5,959.5 C 648.401,960.29 649.068,961.29 649.5,962.5C 647.952,962.179 647.285,961.179 647.5,959.5 Z"/></g>
<g><path style="opacity:0.144" fill="#9d9d9d" d="M 650.5,965.5 C 652.853,967.101 655.02,969.101 657,971.5C 659.333,975.833 661.667,980.167 664,984.5C 671.081,991.385 676.248,999.385 679.5,1008.5C 678.029,1006.78 677.029,1004.78 676.5,1002.5C 675.5,1002.5 674.5,1002.5 673.5,1002.5C 672.076,998.657 670.409,994.99 668.5,991.5C 667.833,991.5 667.5,991.167 667.5,990.5C 661.347,982.436 655.68,974.103 650.5,965.5 Z"/></g>
<g><path style="opacity:0.095" fill="#9d9e9d" d="M 867.5,974.5 C 869.176,975.183 869.843,976.517 869.5,978.5C 868.655,977.329 867.989,975.995 867.5,974.5 Z"/></g>
<g><path style="opacity:0.138" fill="#9d9d9d" d="M 869.5,978.5 C 872.891,981.914 875.557,985.914 877.5,990.5C 879.041,991.991 880.875,993.324 883,994.5C 888.596,1004.94 894.763,1014.94 901.5,1024.5C 898.302,1019.79 894.469,1015.46 890,1011.5C 888.117,1006.61 885.784,1001.95 883,997.5C 877.126,992.129 872.626,985.795 869.5,978.5 Z"/></g>
<g><path style="opacity:0.15" fill="#9d9d9d" d="M 311.5,986.5 C 307.252,991.968 303.086,997.635 299,1003.5C 296.894,1006.12 294.394,1008.12 291.5,1009.5C 295.394,1003.72 299.561,998.052 304,992.5C 306.731,990.582 309.231,988.582 311.5,986.5 Z"/></g>
<g><path style="opacity:0.224" fill="#9b9c9b" d="M 667.5,990.5 C 667.5,991.167 667.833,991.5 668.5,991.5C 668.44,992.043 668.107,992.376 667.5,992.5C 666.227,991.743 666.227,991.077 667.5,990.5 Z"/></g>
<g><path style="opacity:0.134" fill="#9d9d9d" d="M 238.5,996.5 C 236.854,998.812 234.854,1000.81 232.5,1002.5C 229.529,1007.3 226.362,1011.97 223,1016.5C 219.63,1019.05 216.463,1021.71 213.5,1024.5C 214.947,1021.58 216.781,1018.91 219,1016.5C 220.011,1015.66 221.178,1015.33 222.5,1015.5C 222.238,1014.02 222.571,1012.69 223.5,1011.5C 226.828,1008.76 229.328,1005.42 231,1001.5C 233.436,999.533 235.936,997.866 238.5,996.5 Z"/></g>
<g><path style="opacity:0.099" fill="#9d9e9d" d="M 291.5,1009.5 C 291.5,1010.83 290.833,1011.5 289.5,1011.5C 289.833,1010.5 290.5,1009.83 291.5,1009.5 Z"/></g>
<g><path style="opacity:0.119" fill="#9d9d9d" d="M 681.5,1009.5 C 682.5,1009.83 683.167,1010.5 683.5,1011.5C 683.167,1011.5 682.833,1011.5 682.5,1011.5C 681.833,1011.5 681.5,1011.17 681.5,1010.5C 681.5,1010.17 681.5,1009.83 681.5,1009.5 Z"/></g>
<g><path style="opacity:0.225" fill="#9b9c9b" d="M 681.5,1010.5 C 681.5,1011.17 681.833,1011.5 682.5,1011.5C 682.44,1012.04 682.107,1012.38 681.5,1012.5C 680.227,1011.74 680.227,1011.08 681.5,1010.5 Z"/></g>
<g><path style="opacity:0.099" fill="#9d9e9d" d="M 289.5,1011.5 C 289.5,1012.83 288.833,1013.5 287.5,1013.5C 287.833,1012.5 288.5,1011.83 289.5,1011.5 Z"/></g>
<g><path style="opacity:0.112" fill="#9d9e9d" d="M 683.5,1011.5 C 684.345,1012.67 685.011,1014 685.5,1015.5C 683.824,1014.82 683.157,1013.48 683.5,1011.5 Z"/></g>
<g><path style="opacity:0.104" fill="#9d9e9d" d="M 287.5,1013.5 C 287.715,1015.18 287.048,1016.18 285.5,1016.5C 285.932,1015.29 286.599,1014.29 287.5,1013.5 Z"/></g>
<g><path style="opacity:0.109" fill="#9d9e9d" d="M 685.5,1015.5 C 686.401,1016.29 687.068,1017.29 687.5,1018.5C 685.952,1018.18 685.285,1017.18 685.5,1015.5 Z"/></g>
<g><path style="opacity:0.102" fill="#9d9e9d" d="M 285.5,1016.5 C 285.5,1017.83 284.833,1018.5 283.5,1018.5C 283.833,1017.5 284.5,1016.83 285.5,1016.5 Z"/></g>
<g><path style="opacity:0.1" fill="#9d9e9d" d="M 283.5,1018.5 C 283.715,1020.18 283.048,1021.18 281.5,1021.5C 281.932,1020.29 282.599,1019.29 283.5,1018.5 Z"/></g>
<g><path style="opacity:0.108" fill="#9d9e9d" d="M 687.5,1018.5 C 688.5,1018.83 689.167,1019.5 689.5,1020.5C 688.167,1020.5 687.5,1019.83 687.5,1018.5 Z"/></g>
<g><path style="opacity:0.226" fill="#9d9d9d" d="M 689.5,1020.5 C 691.462,1024.98 694.462,1028.82 698.5,1032C 766.833,1032.5 835.166,1032.67 903.5,1032.5C 903.634,1030.71 903.301,1029.04 902.5,1027.5C 904.344,1029.28 905.01,1031.61 904.5,1034.5C 835.167,1034.5 765.833,1034.5 696.5,1034.5C 695.265,1031.04 693.265,1028.04 690.5,1025.5C 689.548,1023.95 689.215,1022.29 689.5,1020.5 Z"/></g>
<g><path style="opacity:0.218" fill="#9d9d9d" d="M 281.5,1021.5 C 278.96,1026.12 275.627,1030.29 271.5,1034C 250.836,1034.5 230.169,1034.67 209.5,1034.5C 208.99,1031.61 209.656,1029.28 211.5,1027.5C 210.699,1029.04 210.366,1030.71 210.5,1032.5C 230.503,1032.67 250.503,1032.5 270.5,1032C 273.396,1028.89 276.063,1025.56 278.5,1022C 279.448,1021.52 280.448,1021.35 281.5,1021.5 Z"/></g>
</svg>
